<?xml version="1.0" encoding="UTF-8"?>
<!-- Generated by Pixelmator Pro 3.7.1 -->
<svg width="315" height="380" viewBox="0 0 315 380" xmlns="http://www.w3.org/2000/svg">
    <g id="PANEL">
        <path id="Rectangle" fill="#929292" fill-rule="evenodd" stroke="none" d="M 0 380 L 315 380 L 315 0 L 0 0 Z"/>
        <path id="Path-copy" fill="#d5d5d5" stroke="none" d="M 154.972977 407.297028 L 320 468.618683 L 320 349.714233 L 155.016541 288.409576 L 154.972977 407.297028 Z M 0 189.330673 L 0 230.807938 L 104.557838 269.383728 L 319.998138 189.330673 L 319.998138 70.426239 L 0 189.330673 Z M 0 31.714874 L 0 150.618011 L 319.998138 31.714874 L 319.998138 -87.189575 L 0 31.714874 Z"/>
        <g id="Group-copy">
            <path id="Path" fill="#151515" stroke="none" d="M 155.873291 369.961487 L 151.617783 369.961487 L 147.362228 358.580414 L 151.617783 358.580414 L 155.873291 369.961487 Z"/>
            <path id="path1" fill="#151515" stroke="none" d="M 158.743271 369.961487 L 157.25882 369.961487 L 153.00325 358.580414 L 157.25882 358.580414 L 160.123886 366.242767 L 158.743271 369.961487 Z"/>
            <path id="path2" fill="#151515" stroke="none" d="M 165.059769 364.449707 L 167.254456 358.580353 L 162.998901 358.580353 L 160.804825 364.448151 L 165.059769 364.449707 Z"/>
            <path id="path3" fill="#151515" stroke="none" d="M 161.466431 357.037872 L 157.411819 357.037872 C 157.411819 357.037872 157.381638 354.849365 154.310928 354.849365 C 151.24028 354.849365 151.309311 357.530212 151.309311 357.530212 L 147.2547 357.530212 C 147.2547 357.530212 147.102936 351 154.278564 351 C 161.454254 351 161.466431 357.037872 161.466431 357.037872 Z"/>
        </g>
    </g>
</svg>
