<?xml version="1.0" encoding="UTF-8" standalone="no"?>
<svg
   version="1.1"
   width="304.8"
   height="380"
   viewBox="0 0 304.8 380"
   id="svg46"
   xmlns="http://www.w3.org/2000/svg"
   xmlns:svg="http://www.w3.org/2000/svg">
  <defs
     id="defs46" />
  <!-- 20HP = 101.6mm = 304.8px at 3px/mm, 380px height standard -->
  <!-- Background -->
  <rect
     x="0"
     y="0"
     width="304.8"
     height="380"
     fill="#1a1a1a"
     id="rect1" />
  <!-- Panel frame/border -->
  <rect
     x="0"
     y="0"
     width="304.8"
     height="380"
     fill="none"
     stroke="#444"
     stroke-width="1"
     id="rect2" />
  <!-- Mounting rail areas -->
  <rect
     x="0"
     y="0"
     width="304.8"
     height="15"
     fill="#222"
     id="rect3" />
  <rect
     x="0"
     y="365"
     width="304.8"
     height="15"
     fill="#222"
     id="rect4" />
  <!-- Reel Display Background -->
  <rect
     x="10"
     y="25"
     rx="4"
     ry="4"
     width="284.8"
     height="60"
     fill="#101010"
     stroke="#333"
     stroke-width="1"
     id="rect5" />
  <!-- Title -->
  <path
     d="m 124.22226,94.923828 v 1.78418 h -3.01465 V 105 h -2.11914 v -8.291992 h -3.02832 v -1.78418 z m 6.09766,8.004882 H 126.608 L 125.91074,105 h -2.20118 l 3.59571,-10.076172 h 2.3789 L 133.25253,105 h -2.2832 z m -0.58789,-1.73633 -1.25782,-3.964841 -1.29883,3.964841 z m 9.07812,0.18457 H 136.6705 V 105 h -2.0918 V 94.923828 h 4.38868 q 1.51757,0 2.41992,0.779297 0.90234,0.779297 0.90234,2.413086 0,1.78418 -0.90234,2.522459 -0.90235,0.73828 -2.57715,0.73828 z m 0.98438,-2.09863 q 0.41015,-0.362304 0.41015,-1.148437 0,-0.786133 -0.41699,-1.121094 -0.41016,-0.334961 -1.15527,-0.334961 h -1.96192 v 2.966797 h 1.96192 q 0.74511,0 1.16211,-0.362305 z m 11.08789,1.31934 h -4.89454 v 2.59082 h 5.57813 V 105 h -7.63574 V 94.923828 h 7.38965 v 1.78418 h -5.33204 v 2.139648 h 4.89454 z m 5.98144,2.94629 q 0.74512,0 1.20996,-0.16407 0.88184,-0.31445 0.88184,-1.16894 0,-0.49903 -0.4375,-0.77246 -0.4375,-0.2666 -1.37403,-0.47168 l -1.0664,-0.23926 q -1.57227,-0.35547 -2.17383,-0.772462 -1.01855,-0.697266 -1.01855,-2.180664 0,-1.353516 0.98437,-2.249023 0.98438,-0.895508 2.8916,-0.895508 1.59278,0 2.71387,0.847656 1.12793,0.84082 1.18262,2.447266 h -2.02344 q -0.0547,-0.90918 -0.79297,-1.291993 -0.49219,-0.252929 -1.22363,-0.252929 -0.81348,0 -1.29883,0.328125 -0.48535,0.328125 -0.48535,0.916015 0,0.540039 0.47851,0.806641 0.30762,0.177734 1.3125,0.416992 l 1.73633,0.416992 q 1.1416,0.273438 1.72266,0.731446 0.90234,0.710936 0.90234,2.057616 0,1.38086 -1.05957,2.29688 -1.05273,0.90918 -2.98047,0.90918 -1.96875,0 -3.09668,-0.89551 -1.12793,-0.90235 -1.12793,-2.47461 h 2.00977 q 0.0957,0.69043 0.37598,1.03223 0.51269,0.62207 1.75683,0.62207 z m 13.00195,-8.620122 v 1.78418 h -3.01464 V 105 h -2.11914 v -8.291992 h -3.02833 v -1.78418 z m 5.50977,6.125002 h -2.17383 V 105 h -2.05762 V 94.923828 h 4.94239 q 1.05957,0.02051 1.62695,0.259766 0.57422,0.239258 0.9707,0.704101 0.32813,0.382813 0.51953,0.847657 0.19141,0.464843 0.19141,1.05957 0,0.717773 -0.3623,1.415039 -0.36231,0.69043 -1.19629,0.977539 0.69726,0.28027 0.98437,0.7998 0.29395,0.5127 0.29395,1.57227 v 0.67676 q 0,0.69043 0.0547,0.93652 0.082,0.38965 0.38281,0.57422 V 105 h -2.31739 q -0.0957,-0.33496 -0.13671,-0.54004 -0.082,-0.42383 -0.0889,-0.86816 l -0.0137,-0.93653 q -0.0137,-0.96386 -0.35547,-1.28515 -0.33496,-0.32129 -1.26465,-0.32129 z m 1.27832,-1.832033 q 0.62891,-0.28711 0.62891,-1.134766 0,-0.916015 -0.6084,-1.230469 -0.3418,-0.177734 -1.02539,-0.177734 h -2.44727 v 2.707031 h 2.38574 q 0.71094,0 1.06641,-0.164062 z m 12.1748,-4.292969 -3.37011,6.289062 V 105 h -2.10547 v -3.78711 l -3.48633,-6.289062 h 2.48145 l 2.09179,4.388672 2.00293,-4.388672 z"
     id="text5"
     style="font-weight:bold;font-size:14px;font-family:Helvetica, Arial, sans-serif;text-anchor:middle;fill:#ffffff"
     aria-label="TAPESTRY" />
  <path
     d="m 119.57773,116.14844 q 0.0273,0.48828 0.23047,0.79297 0.38672,0.57031 1.36328,0.57031 0.4375,0 0.79687,-0.125 0.69532,-0.24219 0.69532,-0.86719 0,-0.46875 -0.29297,-0.66797 -0.29688,-0.19531 -0.92969,-0.33984 l -0.77734,-0.17578 q -0.76172,-0.17188 -1.07813,-0.37891 -0.54687,-0.35937 -0.54687,-1.07422 0,-0.77343 0.53515,-1.26953 0.53516,-0.49609 1.51563,-0.49609 0.90234,0 1.53125,0.4375 0.63281,0.43359 0.63281,1.39062 h -0.73047 q -0.0586,-0.46093 -0.25,-0.70703 -0.35547,-0.44922 -1.20703,-0.44922 -0.6875,0 -0.98828,0.28907 -0.30078,0.28906 -0.30078,0.67187 0,0.42188 0.35156,0.61719 0.23047,0.125 1.04297,0.3125 l 0.80469,0.18359 q 0.58203,0.13281 0.89843,0.36328 0.54688,0.40235 0.54688,1.16797 0,0.95313 -0.69531,1.36328 -0.69141,0.41016 -1.60938,0.41016 -1.07031,0 -1.67578,-0.54688 -0.60547,-0.54296 -0.59375,-1.47265 z m 1.57031,-4.04297 z m 3.27734,0.15625 h 0.78516 v 2.37109 h 2.98438 v -2.37109 h 0.78515 V 118 h -0.78515 v -2.68359 h -2.98438 V 118 h -0.78516 z m 8.23438,-0.15625 q 1.51953,0 2.25,0.97656 0.57031,0.76172 0.57031,1.94922 0,1.28516 -0.65234,2.13672 -0.76563,1 -2.1836,1 -1.32421,0 -2.08203,-0.875 -0.67578,-0.84375 -0.67578,-2.13281 0,-1.16407 0.57813,-1.99219 0.74218,-1.0625 2.19531,-1.0625 z m 0.0781,5.36719 q 1.02735,0 1.48438,-0.73438 0.46094,-0.73828 0.46094,-1.69531 0,-1.01172 -0.53125,-1.62891 -0.52735,-0.61718 -1.44532,-0.61718 -0.89062,0 -1.45312,0.61328 -0.5625,0.60937 -0.5625,1.80078 0,0.95312 0.48047,1.60937 0.48437,0.65235 1.5664,0.65235 z m -0.0547,-5.36719 z m 6.39062,2.78516 q 0.54688,0 0.86328,-0.21875 0.32032,-0.21875 0.32032,-0.78907 0,-0.61328 -0.44532,-0.83593 -0.23828,-0.11719 -0.63672,-0.11719 h -1.89843 v 1.96094 z m -2.57422,-2.62891 h 2.65625 q 0.65625,0 1.08203,0.19141 0.8086,0.36718 0.8086,1.35546 0,0.51563 -0.21485,0.84375 -0.21093,0.32813 -0.59375,0.52735 0.33594,0.13672 0.50391,0.35937 0.17188,0.22266 0.19141,0.72266 l 0.0273,0.76953 q 0.0117,0.32813 0.0547,0.48828 0.0703,0.27344 0.25,0.35156 V 118 h -0.95313 q -0.0391,-0.0742 -0.0625,-0.19141 -0.0234,-0.11718 -0.0391,-0.45312 l -0.0469,-0.95703 q -0.0273,-0.5625 -0.41797,-0.75391 -0.22266,-0.10547 -0.69922,-0.10547 h -1.76953 V 118 h -0.77735 z m 9.71875,0 v 0.68359 h -1.93359 V 118 h -0.78906 v -5.05469 h -1.9336 v -0.68359 z m 1.08985,0 1.08203,4.66797 1.29687,-4.66797 h 0.84375 l 1.29688,4.66797 1.08203,-4.66797 h 0.85156 L 152.25351,118 H 151.4371 L 150.11288,113.24219 148.78085,118 h -0.8164 l -1.5,-5.73828 z m 9.82422,3.38672 -0.8711,-2.53516 -0.92578,2.53516 z m -1.27735,-3.38672 h 0.87891 L 158.81601,118 h -0.85156 l -0.58203,-1.71875 h -2.26954 L 154.49179,118 h -0.79687 z m 3.53125,0 1.64844,4.88672 1.62891,-4.88672 h 0.87109 L 161.44101,118 h -0.82422 l -2.08984,-5.73828 z m 7.10547,0 h 0.77734 v 5.05469 h 2.90625 V 118 h -3.68359 z m 7.39453,3.38672 -0.87109,-2.53516 -0.92578,2.53516 z m -1.27734,-3.38672 h 0.8789 L 175.56992,118 h -0.85157 l -0.58203,-1.71875 h -2.26953 L 171.2457,118 h -0.79688 z m 5.82422,2.42578 q 0.49218,0 0.76562,-0.13672 0.42969,-0.21484 0.42969,-0.77344 0,-0.5625 -0.45703,-0.75781 -0.25781,-0.10937 -0.76563,-0.10937 h -1.38672 v 1.77734 z m 0.26172,2.64844 q 0.71484,0 1.01953,-0.41406 0.1914,-0.26172 0.1914,-0.63282 0,-0.625 -0.55859,-0.85156 -0.29688,-0.12109 -0.78516,-0.12109 h -1.54297 v 2.01953 z m -2.4375,-5.07422 h 2.46484 q 1.00781,0 1.43359,0.60156 0.25,0.35547 0.25,0.82031 0,0.54297 -0.30859,0.89063 -0.16016,0.18359 -0.46094,0.33594 0.44141,0.16797 0.66016,0.3789 0.38672,0.375 0.38672,1.03516 0,0.55469 -0.34766,1.00391 Q 179.81601,118 178.6832,118 h -2.42578 z m 5.86328,3.88672 q 0.0273,0.48828 0.23047,0.79297 0.38671,0.57031 1.36328,0.57031 0.4375,0 0.79687,-0.125 0.69531,-0.24219 0.69531,-0.86719 0,-0.46875 -0.29296,-0.66797 -0.29688,-0.19531 -0.92969,-0.33984 l -0.77735,-0.17578 q -0.76171,-0.17188 -1.07812,-0.37891 -0.54688,-0.35937 -0.54688,-1.07422 0,-0.77343 0.53516,-1.26953 0.53516,-0.49609 1.51563,-0.49609 0.90234,0 1.53125,0.4375 0.63281,0.43359 0.63281,1.39062 h -0.73047 q -0.0586,-0.46093 -0.25,-0.70703 -0.35547,-0.44922 -1.20703,-0.44922 -0.6875,0 -0.98828,0.28907 -0.30078,0.28906 -0.30078,0.67187 0,0.42188 0.35156,0.61719 0.23047,0.125 1.04297,0.3125 l 0.80468,0.18359 q 0.58204,0.13281 0.89844,0.36328 0.54688,0.40235 0.54688,1.16797 0,0.95313 -0.69532,1.36328 -0.6914,0.41016 -1.60937,0.41016 -1.07031,0 -1.67578,-0.54688 -0.60547,-0.54296 -0.59375,-1.47265 z m 1.57031,-4.04297 z"
     id="text6"
     style="font-size:8px;font-family:Helvetica, Arial, sans-serif;text-anchor:middle;fill:#888888"
     aria-label="SHORTWAV LABS" />
  <!-- Input Section Labels -->
  <path
     d="m 19.268066,82.979004 h 0.687012 V 88 h -0.687012 z m 1.791016,0 h 0.803223 l 2.536132,4.067383 v -4.067383 h 0.645997 V 88 H 24.282227 L 21.708496,83.936035 V 88 h -0.649414 z m 1.948242,0 z m 5.051758,0 h 0.680176 v 4.422851 h 2.542969 V 88 h -3.223145 z"
     id="text7"
     style="font-size:7px;font-family:Helvetica, Arial, sans-serif;text-anchor:middle;fill:#aaaaaa"
     aria-label="IN L" />
  <path
     d="m 48.687012,82.979004 h 0.687011 V 88 h -0.687011 z m 1.791015,0 h 0.803223 l 2.536133,4.067383 v -4.067383 h 0.645996 V 88 H 53.701172 L 51.127441,83.936035 V 88 h -0.649414 z m 1.948243,0 z m 7.38623,2.300293 q 0.478516,0 0.755371,-0.191406 0.280274,-0.191407 0.280274,-0.69043 0,-0.536621 -0.389649,-0.731445 Q 60.25,83.563477 59.901367,83.563477 h -1.661133 v 1.71582 z m -2.252441,-2.300293 h 2.324218 q 0.574219,0 0.946778,0.16748 0.707519,0.321289 0.707519,1.186036 0,0.451171 -0.187988,0.738281 -0.18457,0.287109 -0.519531,0.461426 0.293945,0.119628 0.440918,0.314453 0.15039,0.194824 0.16748,0.632324 l 0.02393,0.67334 q 0.01025,0.287109 0.04785,0.427246 0.06152,0.239258 0.21875,0.307617 V 88 h -0.833984 q -0.03418,-0.06494 -0.05469,-0.16748 -0.02051,-0.10254 -0.03418,-0.396485 l -0.04102,-0.837402 q -0.02393,-0.492188 -0.365722,-0.659668 -0.194825,-0.09228 -0.611817,-0.09228 h -1.54834 V 88 h -0.680175 z"
     id="text8"
     style="font-size:7px;font-family:Helvetica, Arial, sans-serif;text-anchor:middle;fill:#aaaaaa"
     aria-label="IN R" />
  <!-- Output Section Labels -->
  <path
     d="m 242.25484,82.842285 q 1.32959,0 1.96875,0.854492 0.49902,0.666504 0.49902,1.705567 0,1.124511 -0.5708,1.869629 -0.66992,0.875 -1.91064,0.875 -1.1587,0 -1.82178,-0.765625 -0.59131,-0.738282 -0.59131,-1.866211 0,-1.018555 0.50586,-1.743164 0.64941,-0.929688 1.9209,-0.929688 z m 0.0684,4.696289 q 0.89892,0 1.29882,-0.642578 0.40332,-0.645996 0.40332,-1.483398 0,-0.885254 -0.46484,-1.425293 -0.46142,-0.540039 -1.26465,-0.540039 -0.77929,0 -1.27148,0.536621 -0.49219,0.533203 -0.49219,1.575683 0,0.833985 0.42041,1.408203 0.42383,0.570801 1.37061,0.570801 z m -0.0479,-4.696289 z m 3.99561,0.136719 v 3.103516 q 0,0.546875 0.20508,0.909179 0.3042,0.546875 1.02539,0.546875 0.86475,0 1.17578,-0.591308 0.16748,-0.321289 0.16748,-0.864746 v -3.103516 h 0.69043 v 2.819824 q 0,0.92627 -0.24951,1.425293 -0.45801,0.90918 -1.72949,0.90918 -1.27149,0 -1.72608,-0.90918 -0.24951,-0.499023 -0.24951,-1.425293 v -2.819824 z m 1.28857,0 z m 6.68213,0 v 0.598144 h -1.69189 V 88 h -0.69043 v -4.422852 h -1.6919 v -0.598144 z m 2.44385,0 h 0.68018 v 4.422851 h 2.54297 V 88 h -3.22315 z"
     id="text9"
     style="font-size:7px;font-family:Helvetica, Arial, sans-serif;text-anchor:middle;fill:#aaaaaa"
     aria-label="OUT L" />
  <path
     d="m 271.67377,82.842285 q 1.32959,0 1.96875,0.854492 0.49902,0.666504 0.49902,1.705567 0,1.124511 -0.5708,1.869629 -0.66992,0.875 -1.91064,0.875 -1.1587,0 -1.82178,-0.765625 -0.59131,-0.738282 -0.59131,-1.866211 0,-1.018555 0.50586,-1.743164 0.64941,-0.929688 1.9209,-0.929688 z m 0.0684,4.696289 q 0.89892,0 1.29882,-0.642578 0.40332,-0.645996 0.40332,-1.483398 0,-0.885254 -0.46484,-1.425293 -0.46142,-0.540039 -1.26465,-0.540039 -0.77929,0 -1.27148,0.536621 -0.49219,0.533203 -0.49219,1.575683 0,0.833985 0.42041,1.408203 0.42383,0.570801 1.37061,0.570801 z m -0.0479,-4.696289 z m 3.99561,0.136719 v 3.103516 q 0,0.546875 0.20508,0.909179 0.3042,0.546875 1.02539,0.546875 0.86475,0 1.17578,-0.591308 0.16748,-0.321289 0.16748,-0.864746 v -3.103516 h 0.69043 v 2.819824 q 0,0.92627 -0.24951,1.425293 -0.45801,0.90918 -1.72949,0.90918 -1.27149,0 -1.72608,-0.90918 -0.24951,-0.499023 -0.24951,-1.425293 v -2.819824 z m 1.28857,0 z m 6.68213,0 v 0.598144 h -1.69189 V 88 h -0.69043 v -4.422852 h -1.6919 v -0.598144 z m 4.77832,2.300293 q 0.47852,0 0.75537,-0.191406 0.28028,-0.191407 0.28028,-0.69043 0,-0.536621 -0.38965,-0.731445 -0.2085,-0.102539 -0.55713,-0.102539 h -1.66113 v 1.71582 z m -2.25244,-2.300293 h 2.32422 q 0.57422,0 0.94678,0.16748 0.70752,0.321289 0.70752,1.186036 0,0.451171 -0.18799,0.738281 -0.18457,0.287109 -0.51953,0.461426 0.29394,0.119628 0.44092,0.314453 0.15039,0.194824 0.16748,0.632324 l 0.0239,0.67334 q 0.0103,0.287109 0.0478,0.427246 0.0615,0.239258 0.21875,0.307617 V 88 h -0.83398 q -0.0342,-0.06494 -0.0547,-0.16748 -0.0205,-0.10254 -0.0342,-0.396485 l -0.041,-0.837402 q -0.0239,-0.492188 -0.36573,-0.659668 -0.19482,-0.09228 -0.61181,-0.09228 h -1.54834 V 88 h -0.68018 z"
     id="text10"
     style="font-size:7px;font-family:Helvetica, Arial, sans-serif;text-anchor:middle;fill:#aaaaaa"
     aria-label="OUT R" />
  <!-- S.O.S. Section -->
  <path
     d="m 25.917969,127.16797 q 0.425781,0 0.691406,-0.0937 0.503906,-0.17969 0.503906,-0.66797 0,-0.28516 -0.25,-0.44141 -0.25,-0.15234 -0.785156,-0.26953 l -0.609375,-0.13672 q -0.898438,-0.20312 -1.242188,-0.4414 -0.582031,-0.39844 -0.582031,-1.2461 0,-0.77343 0.5625,-1.28515 0.5625,-0.51172 1.652344,-0.51172 0.910156,0 1.550781,0.48437 0.644531,0.48047 0.675781,1.39844 h -1.15625 q -0.03125,-0.51953 -0.453125,-0.73828 -0.28125,-0.14453 -0.699218,-0.14453 -0.464844,0 -0.742188,0.1875 -0.277344,0.1875 -0.277344,0.52344 0,0.30859 0.273438,0.46093 0.175781,0.10157 0.75,0.23829 l 0.992187,0.23828 q 0.652344,0.15625 0.984375,0.41797 0.515625,0.40625 0.515625,1.17578 0,0.78906 -0.605468,1.3125 -0.601563,0.51953 -1.703125,0.51953 -1.125,0 -1.769532,-0.51172 -0.644531,-0.51563 -0.644531,-1.41406 h 1.148438 q 0.05469,0.39453 0.214843,0.58984 0.292969,0.35547 1.003907,0.35547 z m 3.136718,-0.33203 h 1.183594 V 128 h -1.183594 z m 4.878907,1.32422 q -1.234375,0 -1.886719,-0.67188 -0.875,-0.82422 -0.875,-2.375 0,-1.58203 0.875,-2.375 0.652344,-0.67187 1.886719,-0.67187 1.234375,0 1.886718,0.67187 0.871094,0.79297 0.871094,2.375 0,1.55078 -0.871094,2.375 -0.652343,0.67188 -1.886718,0.67188 z m 1.136718,-1.54688 q 0.417969,-0.52734 0.417969,-1.5 0,-0.96875 -0.421875,-1.49609 -0.417969,-0.53125 -1.132812,-0.53125 -0.714844,0 -1.140625,0.52734 -0.425782,0.52735 -0.425782,1.5 0,0.97266 0.425782,1.5 0.425781,0.52735 1.140625,0.52735 0.714843,0 1.136718,-0.52735 z M 37.5,126.83594 h 1.183594 V 128 H 37.5 Z m 4.421875,0.33203 q 0.425781,0 0.691406,-0.0937 0.503906,-0.17969 0.503906,-0.66797 0,-0.28516 -0.25,-0.44141 -0.25,-0.15234 -0.785156,-0.26953 l -0.609375,-0.13672 q -0.898437,-0.20312 -1.242187,-0.4414 -0.582032,-0.39844 -0.582032,-1.2461 0,-0.77343 0.5625,-1.28515 0.5625,-0.51172 1.652344,-0.51172 0.910156,0 1.550781,0.48437 0.644532,0.48047 0.675782,1.39844 h -1.15625 q -0.03125,-0.51953 -0.453125,-0.73828 -0.28125,-0.14453 -0.699219,-0.14453 -0.464844,0 -0.742188,0.1875 -0.277343,0.1875 -0.277343,0.52344 0,0.30859 0.273437,0.46093 0.175781,0.10157 0.75,0.23829 l 0.992188,0.23828 q 0.652343,0.15625 0.984375,0.41797 0.515625,0.40625 0.515625,1.17578 0,0.78906 -0.605469,1.3125 -0.601563,0.51953 -1.703125,0.51953 -1.125,0 -1.769531,-0.51172 -0.644532,-0.51563 -0.644532,-1.41406 h 1.148438 q 0.05469,0.39453 0.214844,0.58984 0.292968,0.35547 1.003906,0.35547 z m 3.136719,-0.33203 h 1.183593 V 128 h -1.183593 z"
     id="text11"
     style="font-weight:bold;font-size:8px;font-family:Helvetica, Arial, sans-serif;text-anchor:middle;fill:#eeeeee"
     aria-label="S.O.S." />
  <circle
     cx="35"
     cy="145"
     r="12"
     fill="none"
     stroke="#666"
     stroke-width="1"
     id="circle11" />
  <path
     d="m 33.103027,172.5791 q 0.817383,0 1.268555,0.43067 0.451172,0.43066 0.500977,0.97851 h -0.56836 q -0.09668,-0.41601 -0.386719,-0.65918 -0.287109,-0.24316 -0.808593,-0.24316 -0.635742,0 -1.028321,0.44824 -0.389648,0.44531 -0.389648,1.36816 0,0.75586 0.351562,1.22754 0.354493,0.46875 1.054688,0.46875 0.644531,0 0.981445,-0.49511 0.178711,-0.26075 0.266602,-0.68555 h 0.568359 q -0.07617,0.67969 -0.503906,1.13965 -0.512695,0.55371 -1.382813,0.55371 -0.75,0 -1.259765,-0.4541 -0.670899,-0.60059 -0.670899,-1.8545 0,-0.95214 0.503907,-1.56152 0.544922,-0.66211 1.502929,-0.66211 z m -0.117187,0 z m 2.976562,0.11719 1.236328,3.66504 1.22168,-3.66504 h 0.65332 L 37.503418,177 h -0.618164 l -1.567383,-4.30371 z"
     id="text12"
     style="font-size:6px;font-family:Helvetica, Arial, sans-serif;text-anchor:middle;fill:#888888"
     aria-label="CV" />
  <!-- Gene Size Section -->
  <path
     d="m 87.804687,127.85938 q -0.476562,0.29296 -1.171875,0.29296 -1.144531,0 -1.875,-0.79296 -0.761718,-0.79688 -0.761718,-2.17969 0,-1.39844 0.769531,-2.24219 0.769531,-0.84375 2.035156,-0.84375 1.097656,0 1.761719,0.55859 0.667969,0.55469 0.765625,1.38672 h -1.183594 q -0.136719,-0.58984 -0.667969,-0.82422 -0.296875,-0.1289 -0.660156,-0.1289 -0.695312,0 -1.144531,0.52734 -0.445313,0.52344 -0.445313,1.57813 0,1.0625 0.484375,1.5039 0.484375,0.44141 1.101563,0.44141 0.605469,0 0.992187,-0.34766 0.386719,-0.35156 0.476563,-0.91797 h -1.332031 v -0.96093 h 2.398437 V 128 h -0.796875 l -0.121094,-0.71875 q -0.347656,0.41016 -0.625,0.57813 z m 6.699219,-2.375 h -2.796875 v 1.48046 h 3.1875 V 128 H 90.53125 v -5.75781 h 4.222656 v 1.01953 h -3.046875 v 1.22266 h 2.796875 z M 100.48828,128 h -1.203124 l -2.351562,-4.08984 V 128 H 95.8125 v -5.75781 h 1.261719 l 2.292968,4.01953 v -4.01953 h 1.121093 z m 5.12891,-2.51562 h -2.79688 v 1.48046 h 3.1875 V 128 h -4.36328 v -5.75781 h 4.22266 v 1.01953 h -3.04688 v 1.22266 h 2.79688 z"
     id="text13"
     style="font-weight:bold;font-size:8px;font-family:Helvetica, Arial, sans-serif;text-anchor:middle;fill:#eeeeee"
     aria-label="GENE" />
  <circle
     cx="95"
     cy="145"
     r="12"
     fill="none"
     stroke="#666"
     stroke-width="1"
     id="circle13" />
  <path
     d="m 92.052734,175.23633 -0.65332,-1.90137 -0.694336,1.90137 z m -0.958007,-2.54004 h 0.659179 L 93.31543,177 h -0.638672 l -0.436524,-1.28906 H 90.538086 L 90.072266,177 h -0.597657 z m 5.440429,0 v 0.51269 H 95.084961 V 177 h -0.591797 v -3.79102 h -1.450195 v -0.51269 z m 0.873047,0 1.236328,3.66504 1.22168,-3.66504 h 0.653319 L 98.949219,177 h -0.618164 l -1.567383,-4.30371 z"
     id="text14"
     style="font-size:6px;font-family:Helvetica, Arial, sans-serif;text-anchor:middle;fill:#888888"
     aria-label="ATV" />
  <path
     d="m 93.103027,195.5791 q 0.817383,0 1.268555,0.43067 0.451172,0.43066 0.500977,0.97851 h -0.56836 q -0.09668,-0.41601 -0.386719,-0.65918 -0.287109,-0.24316 -0.808593,-0.24316 -0.635742,0 -1.028321,0.44824 -0.389648,0.44531 -0.389648,1.36816 0,0.75586 0.351562,1.22754 0.354493,0.46875 1.054688,0.46875 0.644531,0 0.981445,-0.49511 0.178711,-0.26075 0.266602,-0.68555 h 0.568359 q -0.07617,0.67969 -0.503906,1.13965 -0.512695,0.55371 -1.382813,0.55371 -0.75,0 -1.259765,-0.4541 -0.670899,-0.60059 -0.670899,-1.8545 0,-0.95214 0.503907,-1.56152 0.544922,-0.66211 1.502929,-0.66211 z m -0.117187,0 z m 2.976562,0.11719 1.236328,3.66504 1.22168,-3.66504 h 0.65332 L 97.503418,200 h -0.618164 l -1.567383,-4.30371 z"
     id="text15"
     style="font-size:6px;font-family:Helvetica, Arial, sans-serif;text-anchor:middle;fill:#888888"
     aria-label="CV" />
  <!-- Morph Section -->
  <path
     d="m 141.82227,128 h -1.1211 v -5.75781 h 1.75 l 1.04688,4.52734 1.03906,-4.52734 h 1.73047 V 128 h -1.1211 v -3.89453 q 0,-0.16797 0.004,-0.46875 0.004,-0.30469 0.004,-0.46875 L 144.06445,128 h -1.16797 l -1.08203,-4.83203 q 0,0.16406 0.004,0.46875 0.004,0.30078 0.004,0.46875 z m 8.10937,0.16016 q -1.23437,0 -1.88672,-0.67188 -0.875,-0.82422 -0.875,-2.375 0,-1.58203 0.875,-2.375 0.65235,-0.67187 1.88672,-0.67187 1.23438,0 1.88672,0.67187 0.87109,0.79297 0.87109,2.375 0,1.55078 -0.87109,2.375 -0.65234,0.67188 -1.88672,0.67188 z m 1.13672,-1.54688 q 0.41797,-0.52734 0.41797,-1.5 0,-0.96875 -0.42188,-1.49609 -0.41797,-0.53125 -1.13281,-0.53125 -0.71484,0 -1.14062,0.52734 -0.42579,0.52735 -0.42579,1.5 0,0.97266 0.42579,1.5 0.42578,0.52735 1.14062,0.52735 0.71484,0 1.13672,-0.52735 z m 4.98437,-0.87109 h -1.24218 V 128 h -1.17578 v -5.75781 h 2.82421 q 0.60547,0.0117 0.92969,0.14844 0.32813,0.13671 0.55469,0.40234 0.1875,0.21875 0.29687,0.48437 0.10938,0.26563 0.10938,0.60547 0,0.41016 -0.20703,0.8086 -0.20703,0.39453 -0.6836,0.55859 0.39844,0.16016 0.5625,0.45703 0.16797,0.29297 0.16797,0.89844 v 0.38672 q 0,0.39453 0.0312,0.53515 0.0469,0.22266 0.21875,0.32813 V 128 h -1.32422 q -0.0547,-0.19141 -0.0781,-0.30859 -0.0469,-0.24219 -0.0508,-0.4961 l -0.008,-0.53515 q -0.008,-0.55078 -0.20313,-0.73438 -0.19141,-0.18359 -0.72266,-0.18359 z m 0.73047,-1.04688 q 0.35938,-0.16406 0.35938,-0.64843 0,-0.52344 -0.34766,-0.70313 -0.19531,-0.10156 -0.58594,-0.10156 h -1.39843 v 1.54687 h 1.36328 q 0.40625,0 0.60937,-0.0937 z m 5.04688,1.23438 h -1.22266 V 128 h -1.19531 v -5.75781 h 2.50781 q 0.86719,0 1.38281,0.44531 0.51563,0.44531 0.51563,1.37891 0,1.01953 -0.51563,1.4414 -0.51562,0.42188 -1.47265,0.42188 z m 0.5625,-1.19922 q 0.23437,-0.20703 0.23437,-0.65625 0,-0.44922 -0.23828,-0.64063 -0.23437,-0.1914 -0.66015,-0.1914 h -1.1211 v 1.69531 h 1.1211 q 0.42578,0 0.66406,-0.20703 z M 168.1543,128 v -2.57031 h -2.25 V 128 h -1.19141 v -5.75781 h 1.19141 v 2.19531 h 2.25 v -2.19531 h 1.19531 V 128 Z"
     id="text16"
     style="font-weight:bold;font-size:8px;font-family:Helvetica, Arial, sans-serif;text-anchor:middle;fill:#eeeeee"
     aria-label="MORPH" />
  <circle
     cx="155"
     cy="145"
     r="12"
     fill="none"
     stroke="#666"
     stroke-width="1"
     id="circle16" />
  <path
     d="m 153.10303,172.5791 q 0.81738,0 1.26855,0.43067 0.45117,0.43066 0.50098,0.97851 h -0.56836 q -0.0967,-0.41601 -0.38672,-0.65918 -0.28711,-0.24316 -0.80859,-0.24316 -0.63575,0 -1.02832,0.44824 -0.38965,0.44531 -0.38965,1.36816 0,0.75586 0.35156,1.22754 0.35449,0.46875 1.05469,0.46875 0.64453,0 0.98144,-0.49511 0.17871,-0.26075 0.2666,-0.68555 h 0.56836 q -0.0762,0.67969 -0.5039,1.13965 -0.5127,0.55371 -1.38281,0.55371 -0.75,0 -1.25977,-0.4541 -0.6709,-0.60059 -0.6709,-1.8545 0,-0.95214 0.50391,-1.56152 0.54492,-0.66211 1.50293,-0.66211 z m -0.11719,0 z m 2.97656,0.11719 1.23633,3.66504 1.22168,-3.66504 h 0.65332 L 157.50342,177 h -0.61817 l -1.56738,-4.30371 z"
     id="text17"
     style="font-size:6px;font-family:Helvetica, Arial, sans-serif;text-anchor:middle;fill:#888888"
     aria-label="CV" />
  <!-- Slide Section -->
  <path
     d="m 205.91992,127.16797 q 0.42578,0 0.69141,-0.0937 0.5039,-0.17969 0.5039,-0.66797 0,-0.28516 -0.25,-0.44141 -0.25,-0.15234 -0.78515,-0.26953 l -0.60938,-0.13672 q -0.89843,-0.20312 -1.24218,-0.4414 -0.58204,-0.39844 -0.58204,-1.2461 0,-0.77343 0.5625,-1.28515 0.5625,-0.51172 1.65235,-0.51172 0.91015,0 1.55078,0.48437 0.64453,0.48047 0.67578,1.39844 h -1.15625 q -0.0312,-0.51953 -0.45312,-0.73828 -0.28125,-0.14453 -0.69922,-0.14453 -0.46485,0 -0.74219,0.1875 -0.27734,0.1875 -0.27734,0.52344 0,0.30859 0.27343,0.46093 0.17578,0.10157 0.75,0.23829 l 0.99219,0.23828 q 0.65234,0.15625 0.98438,0.41797 0.51562,0.40625 0.51562,1.17578 0,0.78906 -0.60547,1.3125 -0.60156,0.51953 -1.70312,0.51953 -1.125,0 -1.76953,-0.51172 -0.64454,-0.51563 -0.64454,-1.41406 h 1.14844 q 0.0547,0.39453 0.21485,0.58984 0.29296,0.35547 1.0039,0.35547 z m 3.2461,-4.92578 h 1.20312 v 4.72265 h 2.85156 V 128 h -4.05468 z m 4.79296,0 h 1.19532 V 128 h -1.19532 z M 218.75586,128 h -2.48047 v -5.75781 h 2.48047 q 0.53516,0.008 0.89062,0.125 0.60547,0.19922 0.98047,0.73047 0.30078,0.42968 0.41016,0.92968 0.10937,0.5 0.10937,0.95313 0,1.14844 -0.46093,1.94531 Q 220.06055,128 218.75586,128 Z m 0.89453,-4.28906 q -0.27734,-0.46875 -1.09766,-0.46875 h -1.10937 V 127 h 1.10937 q 0.85157,0 1.1875,-0.83984 0.1836,-0.46094 0.1836,-1.09766 0,-0.87891 -0.27344,-1.35156 z m 6.41016,1.77344 h -2.79688 v 1.48046 h 3.1875 V 128 h -4.36328 v -5.75781 h 4.22266 v 1.01953 h -3.04688 v 1.22266 h 2.79688 z"
     id="text18"
     style="font-weight:bold;font-size:8px;font-family:Helvetica, Arial, sans-serif;text-anchor:middle;fill:#eeeeee"
     aria-label="SLIDE" />
  <circle
     cx="215"
     cy="145"
     r="12"
     fill="none"
     stroke="#666"
     stroke-width="1"
     id="circle18" />
  <path
     d="m 212.05273,175.23633 -0.65332,-1.90137 -0.69433,1.90137 z m -0.958,-2.54004 h 0.65918 L 213.31543,177 h -0.63867 l -0.43653,-1.28906 h -1.70214 L 210.07227,177 h -0.59766 z m 5.44043,0 v 0.51269 h -1.4502 V 177 h -0.5918 v -3.79102 h -1.45019 v -0.51269 z m 0.87304,0 1.23633,3.66504 1.22168,-3.66504 h 0.65332 L 218.94922,177 h -0.61817 l -1.56738,-4.30371 z"
     id="text19"
     style="font-size:6px;font-family:Helvetica, Arial, sans-serif;text-anchor:middle;fill:#888888"
     aria-label="ATV" />
  <path
     d="m 213.10303,195.5791 q 0.81738,0 1.26855,0.43067 0.45117,0.43066 0.50098,0.97851 h -0.56836 q -0.0967,-0.41601 -0.38672,-0.65918 -0.28711,-0.24316 -0.80859,-0.24316 -0.63575,0 -1.02832,0.44824 -0.38965,0.44531 -0.38965,1.36816 0,0.75586 0.35156,1.22754 0.35449,0.46875 1.05469,0.46875 0.64453,0 0.98144,-0.49511 0.17871,-0.26075 0.2666,-0.68555 h 0.56836 q -0.0762,0.67969 -0.5039,1.13965 -0.5127,0.55371 -1.38281,0.55371 -0.75,0 -1.25977,-0.4541 -0.6709,-0.60059 -0.6709,-1.8545 0,-0.95214 0.50391,-1.56152 0.54492,-0.66211 1.50293,-0.66211 z m -0.11719,0 z m 2.97656,0.11719 1.23633,3.66504 1.22168,-3.66504 h 0.65332 L 217.50342,200 h -0.61817 l -1.56738,-4.30371 z"
     id="text20"
     style="font-size:6px;font-family:Helvetica, Arial, sans-serif;text-anchor:middle;fill:#888888"
     aria-label="CV" />
  <!-- Vari-Speed Section (Center, larger) -->
  <path
     d="m 122.43661,210.80273 h 1.60645 l 1.5625,5.46387 1.57715,-5.46387 h 1.5625 L 126.28915,218 h -1.42089 z m 10.67872,5.71778 h -2.65137 L 129.96591,218 h -1.57226 l 2.56836,-7.19727 h 1.69921 L 135.21005,218 h -1.63086 z m -0.41993,-1.24024 -0.89843,-2.83203 -0.92774,2.83203 z m 6.48438,-0.10254 h -1.55274 V 218 h -1.46972 v -7.19727 h 3.53027 q 0.75684,0.0147 1.16211,0.18555 0.41016,0.1709 0.69336,0.50293 0.23438,0.27344 0.37109,0.60547 0.13672,0.33203 0.13672,0.75684 0,0.51269 -0.25879,1.01074 -0.25879,0.49316 -0.85449,0.69824 0.49805,0.2002 0.70313,0.57129 0.20996,0.36621 0.20996,1.12305 v 0.48339 q 0,0.49317 0.0391,0.66895 0.0586,0.27832 0.27344,0.41016 V 218 h -1.65528 q -0.0684,-0.23926 -0.0977,-0.38574 -0.0586,-0.30274 -0.0635,-0.62012 l -0.01,-0.66894 q -0.01,-0.68848 -0.25391,-0.91797 -0.23926,-0.2295 -0.90332,-0.2295 z m 0.91308,-1.30859 q 0.44922,-0.20508 0.44922,-0.81055 0,-0.65429 -0.43457,-0.8789 -0.24414,-0.12696 -0.73242,-0.12696 h -1.74805 v 1.9336 h 1.70411 q 0.50781,0 0.76171,-0.11719 z m 3.13477,-3.06641 h 1.49414 V 218 h -1.49414 z m 2.36328,3.75 h 2.80274 v 1.31836 h -2.80274 z m 6.47461,2.40723 q 0.53223,0 0.86426,-0.11719 0.62988,-0.22461 0.62988,-0.83496 0,-0.35644 -0.3125,-0.55176 -0.3125,-0.19043 -0.98144,-0.33691 l -0.76172,-0.1709 q -1.12305,-0.2539 -1.55274,-0.55176 -0.72754,-0.49804 -0.72754,-1.55761 0,-0.9668 0.70313,-1.60645 0.70312,-0.63965 2.06543,-0.63965 1.13769,0 1.93848,0.60547 0.80566,0.60059 0.84472,1.74805 h -1.44531 q -0.0391,-0.64942 -0.56641,-0.92285 -0.35156,-0.18067 -0.87402,-0.18067 -0.58105,0 -0.92773,0.23438 -0.34668,0.23437 -0.34668,0.6543 0,0.38574 0.34179,0.57617 0.21973,0.12695 0.9375,0.29785 l 1.24024,0.29785 q 0.81543,0.19531 1.23047,0.52246 0.64453,0.50781 0.64453,1.46973 0,0.98633 -0.75684,1.64062 -0.75195,0.64942 -2.12891,0.64942 -1.40625,0 -2.21191,-0.63965 -0.80566,-0.64453 -0.80566,-1.76758 h 1.43554 q 0.0684,0.49316 0.26856,0.7373 0.36621,0.44434 1.25488,0.44434 z m 7.11426,-1.54785 h -1.52832 V 218 h -1.49414 v -7.19727 h 3.13476 q 1.08399,0 1.72852,0.55664 0.64453,0.55665 0.64453,1.72364 0,1.27441 -0.64453,1.80176 -0.64453,0.52734 -1.84082,0.52734 z m 0.70312,-1.49902 q 0.29297,-0.25879 0.29297,-0.82032 0,-0.56152 -0.29785,-0.80078 -0.29297,-0.23926 -0.82519,-0.23926 h -1.40137 v 2.11914 h 1.40137 q 0.53222,0 0.83007,-0.25878 z m 7.91993,0.94238 h -3.4961 v 1.85058 h 3.98438 V 218 h -5.4541 v -7.19727 h 5.27832 v 1.27442 h -3.8086 v 1.52832 h 3.4961 z m 6.66992,0 h -3.4961 v 1.85058 h 3.98438 V 218 h -5.4541 v -7.19727 h 5.27832 v 1.27442 h -3.8086 v 1.52832 h 3.4961 z M 179.23349,218 h -3.10059 v -7.19727 h 3.10059 q 0.66895,0.01 1.11328,0.15625 0.75684,0.24903 1.22559,0.91309 0.37597,0.53711 0.51269,1.16211 0.13672,0.625 0.13672,1.19141 0,1.43554 -0.57617,2.43164 Q 180.86435,218 179.23349,218 Z m 1.11816,-5.36133 q -0.34668,-0.58594 -1.37207,-0.58594 h -1.38672 V 216.75 h 1.38672 q 1.06446,0 1.48438,-1.0498 0.22949,-0.57618 0.22949,-1.37208 0,-1.09863 -0.3418,-1.68945 z"
     id="text21"
     style="font-weight:bold;font-size:10px;font-family:Helvetica, Arial, sans-serif;text-anchor:middle;fill:#ffffff"
     aria-label="VARI-SPEED" />
  <circle
     cx="152.4"
     cy="240"
     r="18"
     fill="none"
     stroke="#888"
     stroke-width="2"
     id="circle21" />
  <!-- Vari-Speed Activity Arrows -->
  <polygon
     points="55,240 65,235 65,245"
     fill="#333"
     stroke="#555"
     stroke-width="0.5"
     id="polygon21" />
  <polygon
     points="249.8,240 239.8,235 239.8,245"
     fill="#333"
     stroke="#555"
     stroke-width="0.5"
     id="polygon22" />
  <!-- Vari-Speed CV -->
  <path
     d="m 109.45274,276.23633 -0.65332,-1.90137 -0.69434,1.90137 z m -0.95801,-2.54004 h 0.65918 L 110.71543,278 h -0.63867 l -0.43652,-1.28906 h -1.70215 L 107.47227,278 h -0.59766 z m 5.44043,0 v 0.51269 h -1.4502 V 278 h -0.59179 v -3.79102 h -1.4502 v -0.51269 z m 0.87304,0 1.23633,3.66504 1.22168,-3.66504 h 0.65332 L 116.34922,278 h -0.61816 l -1.56739,-4.30371 z"
     id="text22"
     style="font-size:6px;font-family:Helvetica, Arial, sans-serif;text-anchor:middle;fill:#888888"
     aria-label="ATV" />
  <path
     d="m 190.50302,273.5791 q 0.81738,0 1.26856,0.43067 0.45117,0.43066 0.50097,0.97851 h -0.56836 q -0.0967,-0.41601 -0.38672,-0.65918 -0.28711,-0.24316 -0.80859,-0.24316 -0.63574,0 -1.02832,0.44824 -0.38965,0.44531 -0.38965,1.36816 0,0.75586 0.35156,1.22754 0.3545,0.46875 1.05469,0.46875 0.64453,0 0.98145,-0.49511 0.17871,-0.26075 0.2666,-0.68555 h 0.56836 q -0.0762,0.67969 -0.50391,1.13965 -0.51269,0.55371 -1.38281,0.55371 -0.75,0 -1.25977,-0.4541 -0.67089,-0.60059 -0.67089,-1.8545 0,-0.95214 0.5039,-1.56152 0.54492,-0.66211 1.50293,-0.66211 z m -0.11719,0 z m 2.97657,0.11719 1.23632,3.66504 1.22168,-3.66504 h 0.65332 L 194.90341,278 h -0.61816 l -1.56739,-4.30371 z"
     id="text23"
     style="font-size:6px;font-family:Helvetica, Arial, sans-serif;text-anchor:middle;fill:#888888"
     aria-label="CV" />
  <!-- Organize Section -->
  <path
     d="m 263.84491,265.16016 q -1.23438,0 -1.88672,-0.67188 -0.875,-0.82422 -0.875,-2.375 0,-1.58203 0.875,-2.375 0.65234,-0.67187 1.88672,-0.67187 1.23437,0 1.88672,0.67187 0.87109,0.79297 0.87109,2.375 0,1.55078 -0.87109,2.375 -0.65235,0.67188 -1.88672,0.67188 z m 1.13672,-1.54688 q 0.41797,-0.52734 0.41797,-1.5 0,-0.96875 -0.42188,-1.49609 -0.41797,-0.53125 -1.13281,-0.53125 -0.71484,0 -1.14063,0.52734 -0.42578,0.52734 -0.42578,1.5 0,0.97266 0.42578,1.5 0.42579,0.52734 1.14063,0.52734 0.71484,0 1.13672,-0.52734 z m 4.98437,-0.87109 h -1.24218 V 265 h -1.17579 v -5.75781 h 2.82422 q 0.60547,0.0117 0.92969,0.14843 0.32813,0.13672 0.55469,0.40235 0.1875,0.21875 0.29687,0.48437 0.10938,0.26563 0.10938,0.60547 0,0.41016 -0.20703,0.8086 -0.20703,0.39453 -0.6836,0.55859 0.39844,0.16016 0.5625,0.45703 0.16797,0.29297 0.16797,0.89844 v 0.38672 q 0,0.39453 0.0312,0.53515 0.0469,0.22266 0.21875,0.32813 V 265 h -1.32422 q -0.0547,-0.19141 -0.0781,-0.30859 -0.0469,-0.24219 -0.0508,-0.4961 l -0.008,-0.53515 q -0.008,-0.55079 -0.20312,-0.73438 -0.19141,-0.18359 -0.72266,-0.18359 z m 0.73047,-1.04688 q 0.35938,-0.16406 0.35938,-0.64844 0,-0.52343 -0.34766,-0.70312 -0.19531,-0.10156 -0.58594,-0.10156 h -1.39843 v 1.54687 h 1.36328 q 0.40625,0 0.60937,-0.0937 z m 6.13281,3.16406 q -0.47656,0.29297 -1.17187,0.29297 -1.14453,0 -1.875,-0.79297 -0.76172,-0.79687 -0.76172,-2.17968 0,-1.39844 0.76953,-2.24219 0.76953,-0.84375 2.03516,-0.84375 1.09765,0 1.76172,0.55859 0.66797,0.55469 0.76562,1.38672 h -1.18359 q -0.13672,-0.58984 -0.66797,-0.82422 -0.29688,-0.1289 -0.66016,-0.1289 -0.69531,0 -1.14453,0.52734 -0.44531,0.52344 -0.44531,1.57813 0,1.0625 0.48437,1.5039 0.48438,0.44141 1.10157,0.44141 0.60547,0 0.99218,-0.34766 0.38672,-0.35156 0.47657,-0.91797 h -1.33203 v -0.96093 h 2.39843 V 265 h -0.79687 l -0.1211,-0.71875 q -0.34765,0.41016 -0.625,0.57812 z"
     id="text24"
     style="font-weight:bold;font-size:8px;font-family:Helvetica, Arial, sans-serif;text-anchor:middle;fill:#eeeeee"
     aria-label="ORG" />
  <circle
     cx="269.8"
     cy="280"
     r="12"
     fill="none"
     stroke="#666"
     stroke-width="1"
     id="circle24" />
  <path
     d="m 267.90302,305.5791 q 0.81738,0 1.26855,0.43067 0.45117,0.43066 0.50098,0.97851 h -0.56836 q -0.0967,-0.41601 -0.38672,-0.65918 -0.28711,-0.24316 -0.8086,-0.24316 -0.63574,0 -1.02832,0.44824 -0.38964,0.44531 -0.38964,1.36816 0,0.75586 0.35156,1.22754 0.35449,0.46875 1.05469,0.46875 0.64453,0 0.98144,-0.49511 0.17871,-0.26075 0.2666,-0.68555 h 0.56836 q -0.0762,0.67969 -0.5039,1.13965 -0.5127,0.55371 -1.38282,0.55371 -0.75,0 -1.25976,-0.4541 -0.6709,-0.60059 -0.6709,-1.8545 0,-0.95214 0.50391,-1.56152 0.54492,-0.66211 1.50293,-0.66211 z m -0.11719,0 z m 2.97656,0.11719 1.23633,3.66504 1.22168,-3.66504 h 0.65332 L 272.30341,310 h -0.61817 l -1.56738,-4.30371 z"
     id="text25"
     style="font-size:6px;font-family:Helvetica, Arial, sans-serif;text-anchor:middle;fill:#888888"
     aria-label="CV" />
  <!-- Activity Window Labels -->
  <path
     d="m 34.621094,297.66797 q 0.410156,0 0.647461,-0.16406 0.240234,-0.16407 0.240234,-0.5918 0,-0.45996 -0.333984,-0.62695 -0.178711,-0.0879 -0.477539,-0.0879 h -1.423829 v 1.4707 z m -1.930664,-1.97168 h 1.992187 q 0.492188,0 0.811524,0.14355 0.606445,0.27539 0.606445,1.01661 0,0.38671 -0.161133,0.63281 -0.158203,0.24609 -0.445312,0.39551 0.251953,0.10253 0.377929,0.26953 0.128907,0.16699 0.143555,0.54199 l 0.02051,0.57715 q 0.0088,0.24609 0.04102,0.36621 0.05273,0.20508 0.1875,0.26367 V 300 h -0.714843 q -0.0293,-0.0557 -0.04687,-0.14355 -0.01758,-0.0879 -0.0293,-0.33985 l -0.03516,-0.71777 q -0.02051,-0.42188 -0.313477,-0.56543 -0.166992,-0.0791 -0.524414,-0.0791 H 33.273437 V 300 H 32.69043 Z m 4.318359,0 h 3.137695 v 0.52734 h -2.569336 v 1.30664 h 2.375977 v 0.49805 h -2.375977 v 1.45898 H 40.19043 V 300 h -3.181641 z m 1.59082,0 z m 2.411133,0 h 3.137695 v 0.52734 h -2.569335 v 1.30664 h 2.375976 v 0.49805 h -2.375976 v 1.45898 h 2.613281 V 300 h -3.181641 z m 1.59082,0 z m 2.355469,0 h 0.583008 v 3.79101 h 2.179688 V 300 h -2.762696 z"
     id="text26"
     style="font-size:6px;font-family:Helvetica, Arial, sans-serif;text-anchor:middle;fill:#888888"
     aria-label="REEL" />
  <rect
     x="32"
     y="305"
     rx="2"
     ry="2"
     width="16"
     height="8"
     fill="#222"
     stroke="#444"
     stroke-width="0.5"
     id="rect26" />
  <path
     d="m 90.166504,298.61133 q 0.02051,0.36621 0.172851,0.59472 0.29004,0.42774 1.022461,0.42774 0.328125,0 0.597657,-0.0937 0.521484,-0.18164 0.521484,-0.65039 0,-0.35156 -0.219727,-0.50098 -0.222656,-0.14648 -0.697265,-0.25488 l -0.583008,-0.13184 q -0.571289,-0.1289 -0.808594,-0.28418 -0.410156,-0.26953 -0.410156,-0.80566 0,-0.58008 0.401367,-0.95215 0.401367,-0.37207 1.136719,-0.37207 0.676758,0 1.148437,0.32813 0.47461,0.32519 0.47461,1.04296 h -0.547852 q -0.04395,-0.3457 -0.1875,-0.53027 -0.266601,-0.33691 -0.905273,-0.33691 -0.515625,0 -0.741211,0.21679 -0.225586,0.2168 -0.225586,0.50391 0,0.31641 0.263672,0.46289 0.172851,0.0937 0.782226,0.23438 l 0.603516,0.13769 q 0.436523,0.0996 0.673828,0.27246 0.410156,0.30176 0.410156,0.87598 0,0.71484 -0.521484,1.02246 -0.518555,0.30762 -1.207031,0.30762 -0.802735,0 -1.256836,-0.41016 -0.454102,-0.40723 -0.445313,-1.10449 z m 1.177734,-3.03223 z m 2.499024,0.11719 h 1.936523 q 0.574219,0 0.925781,0.32519 0.351563,0.32227 0.351563,0.90821 0,0.5039 -0.313477,0.8789 -0.313476,0.37207 -0.963867,0.37207 H 94.42627 V 300 h -0.583008 z m 2.625,1.23633 q 0,-0.47461 -0.351563,-0.64453 -0.193359,-0.0908 -0.530273,-0.0908 H 94.42627 v 1.49121 h 1.160156 q 0.392578,0 0.635742,-0.167 0.246094,-0.16699 0.246094,-0.58886 z m 1.321289,-1.23633 h 0.583008 v 3.79101 h 2.179691 V 300 h -2.762699 z m 3.468749,0 h 0.58887 V 300 h -0.58887 z m 3.34863,-0.11719 q 0.81739,0 1.26856,0.43067 0.45117,0.43066 0.50097,0.97851 h -0.56835 q -0.0967,-0.41601 -0.38672,-0.65918 -0.28711,-0.24316 -0.8086,-0.24316 -0.63574,0 -1.02832,0.44824 -0.38965,0.44531 -0.38965,1.36816 0,0.75586 0.35157,1.22754 0.35449,0.46875 1.05468,0.46875 0.64454,0 0.98145,-0.49511 0.17871,-0.26075 0.2666,-0.68555 h 0.56836 q -0.0762,0.67969 -0.50391,1.13965 -0.51269,0.55371 -1.38281,0.55371 -0.75,0 -1.25976,-0.4541 -0.6709,-0.60059 -0.6709,-1.8545 0,-0.95214 0.5039,-1.56152 0.54493,-0.66211 1.50293,-0.66211 z m -0.11718,0 z m 2.69238,0.11719 h 3.13769 v 0.52734 h -2.56933 v 1.30664 h 2.37597 v 0.49805 h -2.37597 v 1.45898 h 2.61328 V 300 h -3.18164 z m 1.59082,0 z"
     id="text27"
     style="font-size:6px;font-family:Helvetica, Arial, sans-serif;text-anchor:middle;fill:#888888"
     aria-label="SPLICE" />
  <rect
     x="92"
     y="305"
     rx="2"
     ry="2"
     width="16"
     height="8"
     fill="#222"
     stroke="#444"
     stroke-width="0.5"
     id="rect27" />
  <path
     d="m 158.10303,295.5791 q 0.81738,0 1.26855,0.43067 0.45117,0.43066 0.50098,0.97851 h -0.56836 q -0.0967,-0.41601 -0.38672,-0.65918 -0.28711,-0.24316 -0.80859,-0.24316 -0.63575,0 -1.02832,0.44824 -0.38965,0.44531 -0.38965,1.36816 0,0.75586 0.35156,1.22754 0.35449,0.46875 1.05469,0.46875 0.64453,0 0.98144,-0.49511 0.17871,-0.26075 0.2666,-0.68555 h 0.56836 q -0.0762,0.67969 -0.5039,1.13965 -0.5127,0.55371 -1.38281,0.55371 -0.75,0 -1.25977,-0.4541 -0.6709,-0.60059 -0.6709,-1.8545 0,-0.95214 0.50391,-1.56152 0.54492,-0.66211 1.50293,-0.66211 z m -0.11719,0 z m 2.97656,0.11719 1.23633,3.66504 1.22168,-3.66504 h 0.65332 L 162.50342,300 h -0.61817 l -1.56738,-4.30371 z"
     id="text28"
     style="font-size:6px;font-family:Helvetica, Arial, sans-serif;text-anchor:middle;fill:#888888"
     aria-label="CV" />
  <rect
     x="152"
     y="305"
     rx="2"
     ry="2"
     width="16"
     height="8"
     fill="#222"
     stroke="#444"
     stroke-width="0.5"
     id="rect28" />
  <!-- Gate Input Section -->
  <path
     d="m 21.43457,323.5791 q 0.817383,0 1.268555,0.43067 0.451172,0.43066 0.500977,0.97851 h -0.56836 q -0.09668,-0.41601 -0.386719,-0.65918 -0.287109,-0.24316 -0.808593,-0.24316 -0.635743,0 -1.028321,0.44824 -0.389648,0.44531 -0.389648,1.36816 0,0.75586 0.351562,1.22754 0.354493,0.46875 1.054688,0.46875 0.644531,0 0.981445,-0.49511 0.178711,-0.26075 0.266602,-0.68555 h 0.568359 q -0.07617,0.67969 -0.503906,1.13965 -0.512695,0.55371 -1.382813,0.55371 -0.75,0 -1.259765,-0.4541 -0.670899,-0.60059 -0.670899,-1.8545 0,-0.95214 0.503907,-1.56152 0.544921,-0.66211 1.502929,-0.66211 z m -0.117187,0 z m 2.636719,0.11719 h 0.583007 v 3.79101 h 2.179688 V 328 h -2.762695 z m 3.336914,0 h 0.568359 v 2.09766 l 2.097656,-2.09766 h 0.805664 L 28.972656,325.43066 30.8125,328 H 30.053711 L 28.547852,325.84082 27.859375,326.5 v 1.5 h -0.568359 z"
     id="text29"
     style="font-size:6px;font-family:Helvetica, Arial, sans-serif;text-anchor:middle;fill:#888888"
     aria-label="CLK" />
  <path
     d="m 53.0625,323.69629 h 1.936523 q 0.574219,0 0.925782,0.32519 0.351562,0.32227 0.351562,0.90821 0,0.5039 -0.313476,0.8789 -0.313477,0.37207 -0.963868,0.37207 H 53.645508 V 328 H 53.0625 Z m 2.625,1.23633 q 0,-0.47461 -0.351563,-0.64453 -0.193359,-0.0908 -0.530273,-0.0908 h -1.160156 v 1.49121 h 1.160156 q 0.392578,0 0.635742,-0.167 0.246094,-0.16699 0.246094,-0.58886 z m 1.321289,-1.23633 h 0.583008 v 3.79101 h 2.179687 V 328 h -2.762695 z m 5.545898,2.54004 -0.65332,-1.90137 -0.694336,1.90137 z m -0.958007,-2.54004 h 0.659179 L 63.817383,328 h -0.638672 l -0.436524,-1.28906 H 61.040039 L 60.574219,328 h -0.597657 z m 1.974609,0 h 0.679688 l 1.236328,2.06836 1.236328,-2.06836 h 0.682617 l -1.625977,2.56933 V 328 h -0.583007 v -1.73438 z m 1.924805,0 z"
     id="text30"
     style="font-size:6px;font-family:Helvetica, Arial, sans-serif;text-anchor:middle;fill:#888888"
     aria-label="PLAY" />
  <path
     d="m 91.124023,325.66797 q 0.410157,0 0.647461,-0.16406 0.240235,-0.16407 0.240235,-0.5918 0,-0.45996 -0.333985,-0.62695 -0.178711,-0.0879 -0.477539,-0.0879 h -1.423828 v 1.4707 z m -1.930664,-1.97168 h 1.992188 q 0.492187,0 0.811523,0.14355 0.606446,0.27539 0.606446,1.01661 0,0.38671 -0.161133,0.63281 -0.158203,0.24609 -0.445313,0.39551 0.251953,0.10253 0.37793,0.26953 0.128906,0.16699 0.143555,0.54199 l 0.02051,0.57715 q 0.0088,0.24609 0.04102,0.36621 0.05273,0.20508 0.1875,0.26367 V 328 h -0.714844 q -0.0293,-0.0557 -0.04687,-0.14355 -0.01758,-0.0879 -0.0293,-0.33985 l -0.03516,-0.71777 q -0.02051,-0.42188 -0.313476,-0.56543 -0.166993,-0.0791 -0.524414,-0.0791 H 89.776367 V 328 h -0.583008 z m 4.31836,0 h 3.137695 v 0.52734 h -2.569336 v 1.30664 h 2.375977 v 0.49805 h -2.375977 v 1.45898 h 2.613281 V 328 h -3.18164 z m 1.59082,0 z m 4.168945,-0.11719 q 0.817386,0 1.268556,0.43067 0.45117,0.43066 0.50098,0.97851 h -0.56836 q -0.0967,-0.41601 -0.38672,-0.65918 -0.287112,-0.24316 -0.808596,-0.24316 -0.635742,0 -1.028321,0.44824 -0.389648,0.44531 -0.389648,1.36816 0,0.75586 0.351562,1.22754 0.354493,0.46875 1.054688,0.46875 0.644531,0 0.981445,-0.49511 0.17871,-0.26075 0.2666,-0.68555 h 0.56836 q -0.0762,0.67969 -0.5039,1.13965 -0.5127,0.55371 -1.382818,0.55371 -0.75,0 -1.259765,-0.4541 -0.670899,-0.60059 -0.670899,-1.8545 0,-0.95214 0.503907,-1.56152 0.544922,-0.66211 1.502929,-0.66211 z m -0.117187,0 z"
     id="text31"
     style="font-size:6px;font-family:Helvetica, Arial, sans-serif;text-anchor:middle;fill:#888888"
     aria-label="REC" />
  <path
     d="m 120.1665,326.61133 q 0.0205,0.36621 0.17286,0.59472 0.29003,0.42774 1.02246,0.42774 0.32812,0 0.59765,-0.0937 0.52149,-0.18164 0.52149,-0.65039 0,-0.35156 -0.21973,-0.50098 -0.22266,-0.14648 -0.69727,-0.25488 l -0.583,-0.13184 q -0.57129,-0.1289 -0.8086,-0.28418 -0.41015,-0.26953 -0.41015,-0.80566 0,-0.58008 0.40136,-0.95215 0.40137,-0.37207 1.13672,-0.37207 0.67676,0 1.14844,0.32813 0.47461,0.32519 0.47461,1.04296 h -0.54785 q -0.0439,-0.3457 -0.1875,-0.53027 -0.2666,-0.33691 -0.90528,-0.33691 -0.51562,0 -0.74121,0.21679 -0.22558,0.2168 -0.22558,0.50391 0,0.31641 0.26367,0.46289 0.17285,0.0937 0.78223,0.23438 l 0.60351,0.13769 q 0.43653,0.0996 0.67383,0.27246 0.41016,0.30176 0.41016,0.87598 0,0.71484 -0.52149,1.02246 -0.51855,0.30762 -1.20703,0.30762 -0.80273,0 -1.25684,-0.41016 -0.4541,-0.40723 -0.44531,-1.10449 z m 1.17774,-3.03223 z m 2.49902,0.11719 h 1.93653 q 0.57421,0 0.92578,0.32519 0.35156,0.32227 0.35156,0.90821 0,0.5039 -0.31348,0.8789 -0.31347,0.37207 -0.96386,0.37207 h -1.35352 V 328 h -0.58301 z m 2.625,1.23633 q 0,-0.47461 -0.35156,-0.64453 -0.19336,-0.0908 -0.53027,-0.0908 h -1.16016 v 1.49121 h 1.16016 q 0.39257,0 0.63574,-0.167 0.24609,-0.16699 0.24609,-0.58886 z m 1.32129,-1.23633 h 0.58301 v 3.79101 h 2.17969 V 328 h -2.7627 z m 3.46875,0 h 0.58887 V 328 h -0.58887 z m 3.34863,-0.11719 q 0.81739,0 1.26856,0.43067 0.45117,0.43066 0.50097,0.97851 h -0.56835 q -0.0967,-0.41601 -0.38672,-0.65918 -0.28711,-0.24316 -0.8086,-0.24316 -0.63574,0 -1.02832,0.44824 -0.38965,0.44531 -0.38965,1.36816 0,0.75586 0.35157,1.22754 0.35449,0.46875 1.05468,0.46875 0.64454,0 0.98145,-0.49511 0.17871,-0.26075 0.2666,-0.68555 h 0.56836 q -0.0762,0.67969 -0.50391,1.13965 -0.51269,0.55371 -1.38281,0.55371 -0.75,0 -1.25976,-0.4541 -0.6709,-0.60059 -0.6709,-1.8545 0,-0.95214 0.5039,-1.56152 0.54493,-0.66211 1.50293,-0.66211 z m -0.11718,0 z m 2.69238,0.11719 h 3.13769 v 0.52734 h -2.56933 v 1.30664 h 2.37597 v 0.49805 h -2.37597 v 1.45898 h 2.61328 V 328 h -3.18164 z m 1.59082,0 z"
     id="text32"
     style="font-size:6px;font-family:Helvetica, Arial, sans-serif;text-anchor:middle;fill:#888888"
     aria-label="SPLICE" />
  <path
     d="m 157.17187,326.61133 q 0.0205,0.36621 0.17286,0.59472 0.29004,0.42774 1.02246,0.42774 0.32812,0 0.59765,-0.0937 0.52149,-0.18164 0.52149,-0.65039 0,-0.35156 -0.21973,-0.50098 -0.22265,-0.14648 -0.69726,-0.25488 l -0.58301,-0.13184 q -0.57129,-0.1289 -0.8086,-0.28418 -0.41015,-0.26953 -0.41015,-0.80566 0,-0.58008 0.40137,-0.95215 0.40136,-0.37207 1.13671,-0.37207 0.67676,0 1.14844,0.32813 0.47461,0.32519 0.47461,1.04296 h -0.54785 q -0.044,-0.3457 -0.1875,-0.53027 -0.2666,-0.33691 -0.90527,-0.33691 -0.51563,0 -0.74122,0.21679 -0.22558,0.2168 -0.22558,0.50391 0,0.31641 0.26367,0.46289 0.17285,0.0937 0.78223,0.23438 l 0.60351,0.13769 q 0.43653,0.0996 0.67383,0.27246 0.41016,0.30176 0.41016,0.87598 0,0.71484 -0.52149,1.02246 -0.51855,0.30762 -1.20703,0.30762 -0.80273,0 -1.25683,-0.41016 -0.45411,-0.40723 -0.44532,-1.10449 z m 1.17774,-3.03223 z m 2.45801,0.11719 h 0.58886 v 1.77832 h 2.23829 v -1.77832 h 0.58886 V 328 h -0.58886 v -2.0127 h -2.23829 V 328 h -0.58886 z m 4.45019,0 h 0.58887 V 328 h -0.58887 z m 1.59082,0 h 2.98535 v 0.52734 h -2.40234 v 1.30664 h 2.11231 v 0.5127 h -2.11231 V 328 h -0.58301 z m 6.74121,0 v 0.51269 h -1.45019 V 328 h -0.5918 v -3.79102 h -1.45019 v -0.51269 z"
     id="text33"
     style="font-size:6px;font-family:Helvetica, Arial, sans-serif;text-anchor:middle;fill:#888888"
     aria-label="SHIFT" />
  <!-- CV/Gate Output Section -->
  <path
     d="m 236.64375,323.69629 h 3.1377 v 0.52734 h -2.56934 v 1.30664 h 2.37598 v 0.49805 h -2.37598 v 1.45898 h 2.61328 V 328 h -3.18164 z m 1.59082,0 z m 4.21289,-0.11719 q 1.13965,0 1.6875,0.73242 0.42774,0.57129 0.42774,1.46192 0,0.96386 -0.48926,1.60254 -0.57422,0.75 -1.63769,0.75 -0.99317,0 -1.56153,-0.65625 -0.50683,-0.63282 -0.50683,-1.59961 0,-0.87305 0.43359,-1.49414 0.55664,-0.79688 1.64648,-0.79688 z m 0.0586,4.02539 q 0.77051,0 1.11328,-0.55078 0.3457,-0.55371 0.3457,-1.27148 0,-0.75879 -0.39844,-1.22168 -0.3955,-0.46289 -1.08398,-0.46289 -0.66797,0 -1.08984,0.45996 -0.42188,0.45703 -0.42188,1.35058 0,0.71485 0.36035,1.20703 0.36328,0.48926 1.17481,0.48926 z m -0.041,-4.02539 z m 3.17285,3.03223 q 0.0205,0.36621 0.17286,0.59472 0.29003,0.42774 1.02246,0.42774 0.32812,0 0.59765,-0.0937 0.52149,-0.18164 0.52149,-0.65039 0,-0.35156 -0.21973,-0.50098 -0.22266,-0.14648 -0.69727,-0.25488 l -0.583,-0.13184 q -0.57129,-0.1289 -0.8086,-0.28418 -0.41015,-0.26953 -0.41015,-0.80566 0,-0.58008 0.40136,-0.95215 0.40137,-0.37207 1.13672,-0.37207 0.67676,0 1.14844,0.32813 0.47461,0.32519 0.47461,1.04296 h -0.54785 q -0.0439,-0.3457 -0.1875,-0.53027 -0.2666,-0.33691 -0.90528,-0.33691 -0.51562,0 -0.74121,0.21679 -0.22558,0.2168 -0.22558,0.50391 0,0.31641 0.26367,0.46289 0.17285,0.0937 0.78223,0.23438 l 0.60351,0.13769 q 0.43653,0.0996 0.67383,0.27246 0.41016,0.30176 0.41016,0.87598 0,0.71484 -0.52149,1.02246 -0.51855,0.30762 -1.20703,0.30762 -0.80273,0 -1.25684,-0.41016 -0.4541,-0.40723 -0.44531,-1.10449 z m 1.17774,-3.03223 z m 4.30371,0.006 q 0.60644,0 1.04883,0.23438 0.6416,0.33691 0.78515,1.18066 h -0.57715 q -0.10546,-0.47168 -0.43652,-0.68555 -0.33105,-0.21679 -0.83496,-0.21679 -0.59766,0 -1.00781,0.44824 -0.40723,0.44824 -0.40723,1.33594 0,0.76757 0.33692,1.25097 0.33691,0.48047 1.09863,0.48047 0.58301,0 0.96387,-0.33691 0.38378,-0.33985 0.39257,-1.09571 h -1.34765 v -0.48339 h 1.88965 V 328 h -0.375 l -0.14063,-0.55371 q -0.2959,0.32519 -0.52441,0.45117 -0.38379,0.2168 -0.97559,0.2168 -0.76465,0 -1.31543,-0.49512 -0.60058,-0.62109 -0.60058,-1.70508 0,-1.08105 0.58593,-1.71972 0.55664,-0.60938 1.44141,-0.60938 z m -0.0967,-0.006 z"
     id="text34"
     style="font-size:6px;font-family:Helvetica, Arial, sans-serif;text-anchor:middle;fill:#888888"
     aria-label="EOSG" />
  <path
     d="m 277.90302,323.5791 q 0.81738,0 1.26855,0.43067 0.45117,0.43066 0.50098,0.97851 h -0.56836 q -0.0967,-0.41601 -0.38672,-0.65918 -0.28711,-0.24316 -0.8086,-0.24316 -0.63574,0 -1.02832,0.44824 -0.38964,0.44531 -0.38964,1.36816 0,0.75586 0.35156,1.22754 0.35449,0.46875 1.05469,0.46875 0.64453,0 0.98144,-0.49511 0.17871,-0.26075 0.2666,-0.68555 h 0.56836 q -0.0762,0.67969 -0.5039,1.13965 -0.5127,0.55371 -1.38282,0.55371 -0.75,0 -1.25976,-0.4541 -0.6709,-0.60059 -0.6709,-1.8545 0,-0.95214 0.50391,-1.56152 0.54492,-0.66211 1.50293,-0.66211 z m -0.11719,0 z m 2.97656,0.11719 1.23633,3.66504 1.22168,-3.66504 h 0.65332 L 282.30341,328 h -0.61817 l -1.56738,-4.30371 z"
     id="text35"
     style="font-size:6px;font-family:Helvetica, Arial, sans-serif;text-anchor:middle;fill:#888888"
     aria-label="CV" />
  <!-- Button Section -->
  <path
     d="m 91.124023,355.66797 q 0.410157,0 0.647461,-0.16406 0.240235,-0.16407 0.240235,-0.5918 0,-0.45996 -0.333985,-0.62695 -0.178711,-0.0879 -0.477539,-0.0879 h -1.423828 v 1.4707 z m -1.930664,-1.97168 h 1.992188 q 0.492187,0 0.811523,0.14355 0.606446,0.27539 0.606446,1.01661 0,0.38671 -0.161133,0.63281 -0.158203,0.24609 -0.445313,0.39551 0.251953,0.10253 0.37793,0.26953 0.128906,0.16699 0.143555,0.54199 l 0.02051,0.57715 q 0.0088,0.24609 0.04102,0.36621 0.05273,0.20508 0.1875,0.26367 V 358 h -0.714844 q -0.0293,-0.0557 -0.04687,-0.14355 -0.01758,-0.0879 -0.0293,-0.33985 l -0.03516,-0.71777 q -0.02051,-0.42188 -0.313476,-0.56543 -0.166993,-0.0791 -0.524414,-0.0791 H 89.776367 V 358 h -0.583008 z m 4.31836,0 h 3.137695 v 0.52734 h -2.569336 v 1.30664 h 2.375977 v 0.49805 h -2.375977 v 1.45898 h 2.613281 V 358 h -3.18164 z m 1.59082,0 z m 4.168945,-0.11719 q 0.817386,0 1.268556,0.43067 0.45117,0.43066 0.50098,0.97851 h -0.56836 q -0.0967,-0.41601 -0.38672,-0.65918 -0.287112,-0.24316 -0.808596,-0.24316 -0.635742,0 -1.028321,0.44824 -0.389648,0.44531 -0.389648,1.36816 0,0.75586 0.351562,1.22754 0.354493,0.46875 1.054688,0.46875 0.644531,0 0.981445,-0.49511 0.17871,-0.26075 0.2666,-0.68555 h 0.56836 q -0.0762,0.67969 -0.5039,1.13965 -0.5127,0.55371 -1.382818,0.55371 -0.75,0 -1.259765,-0.4541 -0.670899,-0.60059 -0.670899,-1.8545 0,-0.95214 0.503907,-1.56152 0.544922,-0.66211 1.502929,-0.66211 z m -0.117187,0 z"
     id="text36"
     style="font-size:6px;font-family:Helvetica, Arial, sans-serif;text-anchor:middle;fill:#ff6666"
     aria-label="REC" />
  <path
     d="m 120.1665,356.61133 q 0.0205,0.36621 0.17286,0.59472 0.29003,0.42774 1.02246,0.42774 0.32812,0 0.59765,-0.0937 0.52149,-0.18164 0.52149,-0.65039 0,-0.35156 -0.21973,-0.50098 -0.22266,-0.14648 -0.69727,-0.25488 l -0.583,-0.13184 q -0.57129,-0.1289 -0.8086,-0.28418 -0.41015,-0.26953 -0.41015,-0.80566 0,-0.58008 0.40136,-0.95215 0.40137,-0.37207 1.13672,-0.37207 0.67676,0 1.14844,0.32813 0.47461,0.32519 0.47461,1.04296 h -0.54785 q -0.0439,-0.3457 -0.1875,-0.53027 -0.2666,-0.33691 -0.90528,-0.33691 -0.51562,0 -0.74121,0.21679 -0.22558,0.2168 -0.22558,0.50391 0,0.31641 0.26367,0.46289 0.17285,0.0937 0.78223,0.23438 l 0.60351,0.13769 q 0.43653,0.0996 0.67383,0.27246 0.41016,0.30176 0.41016,0.87598 0,0.71484 -0.52149,1.02246 -0.51855,0.30762 -1.20703,0.30762 -0.80273,0 -1.25684,-0.41016 -0.4541,-0.40723 -0.44531,-1.10449 z m 1.17774,-3.03223 z m 2.49902,0.11719 h 1.93653 q 0.57421,0 0.92578,0.32519 0.35156,0.32227 0.35156,0.90821 0,0.5039 -0.31348,0.8789 -0.31347,0.37207 -0.96386,0.37207 h -1.35352 V 358 h -0.58301 z m 2.625,1.23633 q 0,-0.47461 -0.35156,-0.64453 -0.19336,-0.0908 -0.53027,-0.0908 h -1.16016 v 1.49121 h 1.16016 q 0.39257,0 0.63574,-0.167 0.24609,-0.16699 0.24609,-0.58886 z m 1.32129,-1.23633 h 0.58301 v 3.79101 h 2.17969 V 358 h -2.7627 z m 3.46875,0 h 0.58887 V 358 h -0.58887 z m 3.34863,-0.11719 q 0.81739,0 1.26856,0.43067 0.45117,0.43066 0.50097,0.97851 h -0.56835 q -0.0967,-0.41601 -0.38672,-0.65918 -0.28711,-0.24316 -0.8086,-0.24316 -0.63574,0 -1.02832,0.44824 -0.38965,0.44531 -0.38965,1.36816 0,0.75586 0.35157,1.22754 0.35449,0.46875 1.05468,0.46875 0.64454,0 0.98145,-0.49511 0.17871,-0.26075 0.2666,-0.68555 h 0.56836 q -0.0762,0.67969 -0.50391,1.13965 -0.51269,0.55371 -1.38281,0.55371 -0.75,0 -1.25976,-0.4541 -0.6709,-0.60059 -0.6709,-1.8545 0,-0.95214 0.5039,-1.56152 0.54493,-0.66211 1.50293,-0.66211 z m -0.11718,0 z m 2.69238,0.11719 h 3.13769 v 0.52734 h -2.56933 v 1.30664 h 2.37597 v 0.49805 h -2.37597 v 1.45898 h 2.61328 V 358 h -3.18164 z m 1.59082,0 z"
     id="text37"
     style="font-size:6px;font-family:Helvetica, Arial, sans-serif;text-anchor:middle;fill:#ffcc66"
     aria-label="SPLICE" />
  <path
     d="m 157.17187,356.61133 q 0.0205,0.36621 0.17286,0.59472 0.29004,0.42774 1.02246,0.42774 0.32812,0 0.59765,-0.0937 0.52149,-0.18164 0.52149,-0.65039 0,-0.35156 -0.21973,-0.50098 -0.22265,-0.14648 -0.69726,-0.25488 l -0.58301,-0.13184 q -0.57129,-0.1289 -0.8086,-0.28418 -0.41015,-0.26953 -0.41015,-0.80566 0,-0.58008 0.40137,-0.95215 0.40136,-0.37207 1.13671,-0.37207 0.67676,0 1.14844,0.32813 0.47461,0.32519 0.47461,1.04296 h -0.54785 q -0.044,-0.3457 -0.1875,-0.53027 -0.2666,-0.33691 -0.90527,-0.33691 -0.51563,0 -0.74122,0.21679 -0.22558,0.2168 -0.22558,0.50391 0,0.31641 0.26367,0.46289 0.17285,0.0937 0.78223,0.23438 l 0.60351,0.13769 q 0.43653,0.0996 0.67383,0.27246 0.41016,0.30176 0.41016,0.87598 0,0.71484 -0.52149,1.02246 -0.51855,0.30762 -1.20703,0.30762 -0.80273,0 -1.25683,-0.41016 -0.45411,-0.40723 -0.44532,-1.10449 z m 1.17774,-3.03223 z m 2.45801,0.11719 h 0.58886 v 1.77832 h 2.23829 v -1.77832 h 0.58886 V 358 h -0.58886 v -2.0127 h -2.23829 V 358 h -0.58886 z m 4.45019,0 h 0.58887 V 358 h -0.58887 z m 1.59082,0 h 2.98535 v 0.52734 h -2.40234 v 1.30664 h 2.11231 v 0.5127 h -2.11231 V 358 h -0.58301 z m 6.74121,0 v 0.51269 h -1.45019 V 358 h -0.5918 v -3.79102 h -1.45019 v -0.51269 z"
     id="text38"
     style="font-size:6px;font-family:Helvetica, Arial, sans-serif;text-anchor:middle;fill:#66ff66"
     aria-label="SHIFT" />
  <!-- Decorative elements -->
  <line
     x1="10"
     y1="320"
     x2="200"
     y2="320"
     stroke="#333"
     stroke-width="0.5"
     id="line38" />
  <line
     x1="220"
     y1="320"
     x2="294.8"
     y2="320"
     stroke="#333"
     stroke-width="0.5"
     id="line39" />
  <!-- Speed indicator scale marks around vari-speed knob -->
  <g
     transform="translate(152.4, 240)"
     id="g46">
    <line
       x1="0"
       y1="-25"
       x2="0"
       y2="-22"
       stroke="#555"
       stroke-width="0.5"
       id="line40" />
    <line
       x1="17.68"
       y1="-17.68"
       x2="15.56"
       y2="-15.56"
       stroke="#555"
       stroke-width="0.5"
       id="line41" />
    <line
       x1="25"
       y1="0"
       x2="22"
       y2="0"
       stroke="#555"
       stroke-width="0.5"
       id="line42" />
    <line
       x1="17.68"
       y1="17.68"
       x2="15.56"
       y2="15.56"
       stroke="#555"
       stroke-width="0.5"
       id="line43" />
    <line
       x1="-17.68"
       y1="-17.68"
       x2="-15.56"
       y2="-15.56"
       stroke="#555"
       stroke-width="0.5"
       id="line44" />
    <line
       x1="-25"
       y1="0"
       x2="-22"
       y2="0"
       stroke="#555"
       stroke-width="0.5"
       id="line45" />
    <line
       x1="-17.68"
       y1="17.68"
       x2="-15.56"
       y2="15.56"
       stroke="#555"
       stroke-width="0.5"
       id="line46" />
  </g>
  <!-- Version mark -->
  <path
     d="m 281.08643,372.38525 0.69824,2.12891 0.72998,-2.12891 h 0.48096 L 282.00928,375 h -0.46875 l -0.96436,-2.61475 z m 2.4414,0.13916 v -0.33691 q 0.47608,-0.0464 0.66406,-0.15381 0.18799,-0.10986 0.28077,-0.51514 h 0.34668 V 375 h -0.46875 v -2.47559 z m 2.72949,1.94336 h 0.51026 V 375 h -0.51026 z m 2.31446,-2.96386 q 0.67871,0 0.98144,0.55908 0.23438,0.43213 0.23438,1.18408 0,0.71289 -0.2124,1.1792 -0.30762,0.66894 -1.00586,0.66894 -0.62989,0 -0.9375,-0.54687 -0.25635,-0.45654 -0.25635,-1.22559 0,-0.5957 0.15381,-1.02295 0.28808,-0.79589 1.04248,-0.79589 z m -0.005,3.19091 q 0.3418,0 0.54444,-0.30273 0.20263,-0.30273 0.20263,-1.12793 0,-0.5957 -0.14648,-0.979 -0.14648,-0.38575 -0.56885,-0.38575 -0.38818,0 -0.56884,0.36621 -0.17823,0.36377 -0.17823,1.07422 0,0.53467 0.11475,0.85938 0.17578,0.4956 0.60058,0.4956 z"
     id="text46"
     style="font-size:5px;font-family:Helvetica, Arial, sans-serif;text-anchor:end;fill:#444444"
     aria-label="v1.0" />
</svg>
