<?xml version="1.0" encoding="UTF-8"?>
<!-- Generated by Pixelmator Pro 3.7.1 -->
<svg width="315" height="380" viewBox="0 0 315 380" xmlns="http://www.w3.org/2000/svg">
    <g id="PANEL">
        <path id="Rectangle" fill="#929292" fill-rule="evenodd" stroke="none" d="M 0 380 L 315 380 L 315 0 L 0 0 Z"/>
        <path id="Path-copy" fill="#d5d5d5" stroke="none" d="M 154.972977 407.297028 L 320 468.618683 L 320 349.714233 L 155.016541 288.409576 L 154.972977 407.297028 Z M 0 189.330673 L 0 230.807938 L 104.557838 269.383728 L 319.998138 189.330673 L 319.998138 70.426239 L 0 189.330673 Z M 0 31.714874 L 0 150.618011 L 319.998138 31.714874 L 319.998138 -87.189575 L 0 31.714874 Z"/>
        <g id="Group-copy">
            <path id="Path" fill="#151515" stroke="none" d="M 155.873291 369.961487 L 151.617783 369.961487 L 147.362228 358.580414 L 151.617783 358.580414 L 155.873291 369.961487 Z"/>
            <path id="path1" fill="#151515" stroke="none" d="M 158.743271 369.961487 L 157.25882 369.961487 L 153.00325 358.580414 L 157.25882 358.580414 L 160.123886 366.242767 L 158.743271 369.961487 Z"/>
            <path id="path2" fill="#151515" stroke="none" d="M 165.059769 364.449707 L 167.254456 358.580353 L 162.998901 358.580353 L 160.804825 364.448151 L 165.059769 364.449707 Z"/>
            <path id="path3" fill="#151515" stroke="none" d="M 161.466431 357.037872 L 157.411819 357.037872 C 157.411819 357.037872 157.381638 354.849365 154.310928 354.849365 C 151.24028 354.849365 151.309311 357.530212 151.309311 357.530212 L 147.2547 357.530212 C 147.2547 357.530212 147.102936 351 154.278564 351 C 161.454254 351 161.466431 357.037872 161.466431 357.037872 Z"/>
        </g>
    </g>
    <g id="LABELS">
        <path id="DUB" fill="#151515" fill-rule="evenodd" stroke="none" d="M 8.2 102.27301 L 8.2 100.778992 C 8.2 100.268982 8.318499 99.897003 8.5555 99.662994 C 8.792501 99.428986 9.156998 99.312012 9.649 99.312012 L 9.901 99.312012 C 10.225002 99.312012 10.488998 99.364502 10.693 99.469513 C 10.897001 99.574493 11.044 99.734985 11.134 99.950989 L 11.152 99.950989 C 11.320001 99.458984 11.757997 99.213013 12.466 99.213013 L 13.006001 99.213013 C 13.492002 99.213013 13.862499 99.340485 14.1175 99.59549 C 14.372501 99.850494 14.5 100.223999 14.5 100.716003 L 14.5 102.27301 Z M 10.764999 100.895996 C 10.764999 100.697998 10.714001 100.5495 10.612 100.4505 C 10.509999 100.351501 10.339001 100.302002 10.099 100.302002 L 9.748 100.302002 C 9.519999 100.302002 9.355 100.342499 9.253 100.423492 C 9.150999 100.504486 9.1 100.631989 9.1 100.806 L 9.1 101.28299 L 10.764999 101.28299 Z M 13.6 100.716003 C 13.6 100.541992 13.5535 100.412994 13.4605 100.32901 C 13.367499 100.244995 13.207001 100.203003 12.979 100.203003 L 12.43 100.203003 C 12.141998 100.203003 11.942501 100.252502 11.8315 100.351501 C 11.720499 100.4505 11.665 100.614014 11.665 100.84201 L 11.665 101.28299 L 13.6 101.28299 Z M 14.59 105.531006 C 14.59 106.011017 14.453502 106.377014 14.1805 106.628998 C 13.907498 106.881012 13.516003 107.006989 13.006001 107.006989 L 8.2 107.006989 L 8.2 106.016998 L 13.078 106.016998 C 13.294001 106.016998 13.449999 105.973511 13.546 105.886505 C 13.642 105.7995 13.690001 105.674988 13.690001 105.513 C 13.690001 105.351013 13.642 105.226501 13.546 105.139496 C 13.449999 105.05249 13.294001 105.009003 13.078 105.009003 L 8.2 105.009003 L 8.2 104.054993 L 13.006001 104.054993 C 13.516003 104.054993 13.907498 104.181 14.1805 104.433014 C 14.453502 104.684998 14.59 105.050995 14.59 105.531006 Z M 8.2 111.704987 L 8.2 110.192993 C 8.2 109.700989 8.331999 109.332001 8.596 109.085999 C 8.860002 108.839996 9.246998 108.71701 9.757 108.71701 L 12.943 108.71701 C 13.453003 108.71701 13.839998 108.839996 14.104 109.085999 C 14.368001 109.332001 14.5 109.700989 14.5 110.192993 L 14.5 111.704987 Z M 13.6 110.210999 C 13.6 110.049011 13.552 109.9245 13.455999 109.837494 C 13.36 109.750488 13.204 109.707001 12.988 109.707001 L 9.712 109.707001 C 9.495999 109.707001 9.34 109.750488 9.244 109.837494 C 9.148 109.9245 9.1 110.049011 9.1 110.210999 L 9.1 110.714996 L 13.6 110.714996 Z"/>
        <path id="REC" fill="#151515" fill-rule="evenodd" stroke="none" d="M 101.527496 122.089996 C 101.053497 122.089996 100.692001 121.954987 100.443001 121.684998 C 100.194 121.415009 100.069504 121.033997 100.069504 120.541992 L 100.069504 117.15799 C 100.069504 116.665985 100.194 116.285004 100.443001 116.015015 C 100.692001 115.744995 101.053497 115.609985 101.527496 115.609985 C 102.001503 115.609985 102.362999 115.744995 102.612 116.015015 C 102.861 116.285004 102.985504 116.665985 102.985504 117.15799 L 102.985504 117.824005 L 102.0495 117.824005 L 102.0495 117.095001 C 102.0495 116.704987 101.884499 116.51001 101.554497 116.51001 C 101.224503 116.51001 101.059502 116.704987 101.059502 117.095001 L 101.059502 120.614014 C 101.059502 120.998016 101.224503 121.190002 101.554497 121.190002 C 101.884499 121.190002 102.0495 120.998016 102.0495 120.614014 L 102.0495 119.651001 L 102.985504 119.651001 L 102.985504 120.541992 C 102.985504 121.033997 102.861 121.415009 102.612 121.684998 C 102.362999 121.954987 102.001503 122.089996 101.527496 122.089996 Z M 95.7855 115.700012 L 98.485504 115.700012 L 98.485504 116.600006 L 96.775497 116.600006 L 96.775497 118.265015 L 98.134499 118.265015 L 98.134499 119.165009 L 96.775497 119.165009 L 96.775497 121.100006 L 98.485504 121.100006 L 98.485504 122 L 95.7855 122 Z M 91.078499 115.700012 L 92.545502 115.700012 C 93.055504 115.700012 93.427498 115.818512 93.661499 116.055511 C 93.8955 116.292511 94.012497 116.656982 94.012497 117.148987 L 94.012497 117.536011 C 94.012497 118.190002 93.796501 118.604004 93.364502 118.778015 L 93.364502 118.79599 C 93.6045 118.868011 93.774002 119.014984 93.873001 119.237 C 93.972 119.459015 94.0215 119.756012 94.0215 120.127991 L 94.0215 121.234985 C 94.0215 121.415009 94.027496 121.560486 94.039497 121.671509 C 94.051498 121.782501 94.081497 121.891998 94.129501 122 L 93.121498 122 C 93.085503 121.89801 93.061501 121.802002 93.0495 121.712006 C 93.037498 121.622009 93.031502 121.459991 93.031502 121.226013 L 93.031502 120.074005 C 93.031502 119.786011 92.985001 119.584991 92.891998 119.471008 C 92.798996 119.356995 92.638504 119.299988 92.4105 119.299988 L 92.068497 119.299988 L 92.068497 122 L 91.078499 122 Z M 92.428497 118.399994 C 92.626503 118.399994 92.775002 118.348999 92.874001 118.247009 C 92.973 118.144989 93.022499 117.973999 93.022499 117.734009 L 93.022499 117.247986 C 93.022499 117.019989 92.982002 116.855011 92.901001 116.752991 C 92.82 116.651001 92.692505 116.600006 92.518501 116.600006 L 92.068497 116.600006 L 92.068497 118.399994 Z"/>
        <path id="MRK" fill="#151515" fill-rule="evenodd" stroke="none" d="M 130.780502 115.700012 L 131.770508 115.700012 L 131.770508 118.355011 L 133.030502 115.700012 L 134.020508 115.700012 L 132.841507 118.013 L 134.038498 122 L 133.003494 122 L 132.166504 119.191986 L 131.770508 119.993011 L 131.770508 122 L 130.780502 122 Z M 126.073502 115.700012 L 127.540497 115.700012 C 128.050507 115.700012 128.422501 115.818512 128.656494 116.055511 C 128.890503 116.292511 129.007507 116.656982 129.007507 117.148987 L 129.007507 117.536011 C 129.007507 118.190002 128.791504 118.604004 128.359497 118.778015 L 128.359497 118.79599 C 128.599503 118.868011 128.768997 119.014984 128.867996 119.237 C 128.966995 119.459015 129.016495 119.756012 129.016495 120.127991 L 129.016495 121.234985 C 129.016495 121.415009 129.022507 121.560486 129.0345 121.671509 C 129.046494 121.782501 129.076508 121.891998 129.124496 122 L 128.116501 122 C 128.080505 121.89801 128.056503 121.802002 128.044495 121.712006 C 128.032501 121.622009 128.026505 121.459991 128.026505 121.226013 L 128.026505 120.074005 C 128.026505 119.786011 127.980003 119.584991 127.887001 119.471008 C 127.793999 119.356995 127.633499 119.299988 127.405502 119.299988 L 127.063499 119.299988 L 127.063499 122 L 126.073502 122 Z M 127.4235 118.399994 C 127.621498 118.399994 127.769997 118.348999 127.869003 118.247009 C 127.968002 118.144989 128.017502 117.973999 128.017502 117.734009 L 128.017502 117.247986 C 128.017502 117.019989 127.976997 116.855011 127.895996 116.752991 C 127.815002 116.651001 127.6875 116.600006 127.513504 116.600006 L 127.063499 116.600006 L 127.063499 118.399994 Z M 120.151497 115.700012 L 121.564499 115.700012 L 122.194504 120.209015 L 122.212502 120.209015 L 122.842499 115.700012 L 124.255501 115.700012 L 124.255501 122 L 123.319504 122 L 123.319504 117.230011 L 123.301498 117.230011 L 122.581497 122 L 121.753502 122 L 121.033501 117.230011 L 121.015503 117.230011 L 121.015503 122 L 120.151497 122 Z"/>
        <path id="NXT" fill="#151515" fill-rule="evenodd" stroke="none" d="M 161.793503 116.600006 L 160.758499 116.600006 L 160.758499 115.700012 L 163.818497 115.700012 L 163.818497 116.600006 L 162.783493 116.600006 L 162.783493 122 L 161.793503 122 Z M 157.158493 118.778015 L 156.069504 115.700012 L 157.113495 115.700012 L 157.779495 117.734009 L 157.797501 117.734009 L 158.481506 115.700012 L 159.417496 115.700012 L 158.328506 118.778015 L 159.471497 122 L 158.427505 122 L 157.707504 119.803986 L 157.689499 119.803986 L 156.951508 122 L 156.015503 122 Z M 151.362503 115.700012 L 152.604492 115.700012 L 153.567505 119.471008 L 153.585495 119.471008 L 153.585495 115.700012 L 154.467499 115.700012 L 154.467499 122 L 153.4505 122 L 152.262497 117.401001 L 152.244507 117.401001 L 152.244507 122 L 151.362503 122 Z"/>
        <path id="CLR" fill="#151515" fill-rule="evenodd" stroke="none" d="M 189.867004 115.700012 L 191.334 115.700012 C 191.844009 115.700012 192.216003 115.818512 192.449997 116.055511 C 192.684006 116.292511 192.800995 116.656982 192.800995 117.148987 L 192.800995 117.536011 C 192.800995 118.190002 192.585007 118.604004 192.153 118.778015 L 192.153 118.79599 C 192.393005 118.868011 192.5625 119.014984 192.661499 119.237 C 192.760498 119.459015 192.809998 119.756012 192.809998 120.127991 L 192.809998 121.234985 C 192.809998 121.415009 192.815994 121.560486 192.828003 121.671509 C 192.839996 121.782501 192.869995 121.891998 192.917999 122 L 191.910004 122 C 191.873993 121.89801 191.850006 121.802002 191.837997 121.712006 C 191.826004 121.622009 191.820007 121.459991 191.820007 121.226013 L 191.820007 120.074005 C 191.820007 119.786011 191.773499 119.584991 191.680496 119.471008 C 191.587494 119.356995 191.427002 119.299988 191.199005 119.299988 L 190.856995 119.299988 L 190.856995 122 L 189.867004 122 Z M 191.216995 118.399994 C 191.415009 118.399994 191.563507 118.348999 191.662506 118.247009 C 191.761505 118.144989 191.811005 117.973999 191.811005 117.734009 L 191.811005 117.247986 C 191.811005 117.019989 191.770508 116.855011 191.689499 116.752991 C 191.608505 116.651001 191.481003 116.600006 191.307007 116.600006 L 190.856995 116.600006 L 190.856995 118.399994 Z M 185.690994 115.700012 L 186.681 115.700012 L 186.681 121.100006 L 188.309998 121.100006 L 188.309998 122 L 185.690994 122 Z M 182.559006 122.089996 C 182.084991 122.089996 181.723495 121.954987 181.474503 121.684998 C 181.225494 121.415009 181.100998 121.033997 181.100998 120.541992 L 181.100998 117.15799 C 181.100998 116.665985 181.225494 116.285004 181.474503 116.015015 C 181.723495 115.744995 182.084991 115.609985 182.559006 115.609985 C 183.033005 115.609985 183.394501 115.744995 183.643494 116.015015 C 183.892502 116.285004 184.016998 116.665985 184.016998 117.15799 L 184.016998 117.824005 L 183.080994 117.824005 L 183.080994 117.095001 C 183.080994 116.704987 182.916 116.51001 182.585999 116.51001 C 182.255997 116.51001 182.091003 116.704987 182.091003 117.095001 L 182.091003 120.614014 C 182.091003 120.998016 182.255997 121.190002 182.585999 121.190002 C 182.916 121.190002 183.080994 120.998016 183.080994 120.614014 L 183.080994 119.651001 L 184.016998 119.651001 L 184.016998 120.541992 C 184.016998 121.033997 183.892502 121.415009 183.643494 121.684998 C 183.394501 121.954987 183.033005 122.089996 182.559006 122.089996 Z"/>
        <path id="AUTO" fill="#151515" fill-rule="evenodd" stroke="none" d="M 223.804504 122.089996 C 223.318497 122.089996 222.946503 121.951996 222.688507 121.675995 C 222.430496 121.399994 222.301498 121.01001 222.301498 120.506012 L 222.301498 117.194 C 222.301498 116.690002 222.430496 116.299988 222.688507 116.023987 C 222.946503 115.747986 223.318497 115.609985 223.804504 115.609985 C 224.290497 115.609985 224.662506 115.747986 224.920502 116.023987 C 225.178497 116.299988 225.307495 116.690002 225.307495 117.194 L 225.307495 120.506012 C 225.307495 121.01001 225.178497 121.399994 224.920502 121.675995 C 224.662506 121.951996 224.290497 122.089996 223.804504 122.089996 Z M 223.804504 121.190002 C 224.1465 121.190002 224.317505 120.983002 224.317505 120.569 L 224.317505 117.131012 C 224.317505 116.71701 224.1465 116.51001 223.804504 116.51001 C 223.462494 116.51001 223.291504 116.71701 223.291504 117.131012 L 223.291504 120.569 C 223.291504 120.983002 223.462494 121.190002 223.804504 121.190002 Z M 218.827499 116.600006 L 217.792496 116.600006 L 217.792496 115.700012 L 220.852493 115.700012 L 220.852493 116.600006 L 219.817505 116.600006 L 219.817505 122 L 218.827499 122 Z M 214.795502 122.089996 C 214.315491 122.089996 213.949493 121.953491 213.697495 121.680511 C 213.445496 121.407501 213.319504 121.015991 213.319504 120.506012 L 213.319504 115.700012 L 214.309494 115.700012 L 214.309494 120.578003 C 214.309494 120.794006 214.352997 120.950012 214.440002 121.04599 C 214.527008 121.141998 214.651505 121.190002 214.813507 121.190002 C 214.975494 121.190002 215.100006 121.141998 215.186996 121.04599 C 215.274002 120.950012 215.317505 120.794006 215.317505 120.578003 L 215.317505 115.700012 L 216.2715 115.700012 L 216.2715 120.506012 C 216.2715 121.015991 216.145508 121.407501 215.893494 121.680511 C 215.641495 121.953491 215.275497 122.089996 214.795502 122.089996 Z M 209.449493 115.700012 L 210.790497 115.700012 L 211.816498 122 L 210.826508 122 L 210.6465 120.748993 L 210.6465 120.766998 L 209.5215 120.766998 L 209.341507 122 L 208.423492 122 Z M 210.529495 119.911987 L 210.088501 116.798004 L 210.070496 116.798004 L 209.638504 119.911987 Z"/>
        <path id="SLCT" fill="#151515" fill-rule="evenodd" stroke="none" d="M 266.600006 97.487488 L 266.600006 98.522491 L 265.700012 98.522491 L 265.700012 95.462494 L 266.600006 95.462494 L 266.600006 96.497498 L 272 96.497498 L 272 97.487488 Z M 272.089996 101.393494 C 272.089996 101.867493 271.954987 102.229004 271.684998 102.477997 C 271.415009 102.72699 271.033997 102.851501 270.541992 102.851501 L 267.15799 102.851501 C 266.665985 102.851501 266.285004 102.72699 266.015015 102.477997 C 265.744995 102.229004 265.609985 101.867493 265.609985 101.393494 C 265.609985 100.919495 265.744995 100.558014 266.015015 100.30899 C 266.285004 100.059998 266.665985 99.935486 267.15799 99.935486 L 267.824005 99.935486 L 267.824005 100.87149 L 267.095001 100.87149 C 266.704987 100.87149 266.51001 101.036499 266.51001 101.366486 C 266.51001 101.696503 266.704987 101.861511 267.095001 101.861511 L 270.614014 101.861511 C 270.998016 101.861511 271.190002 101.696503 271.190002 101.366486 C 271.190002 101.036499 270.998016 100.87149 270.614014 100.87149 L 269.651001 100.87149 L 269.651001 99.935486 L 270.541992 99.935486 C 271.033997 99.935486 271.415009 100.059998 271.684998 100.30899 C 271.954987 100.558014 272.089996 100.919495 272.089996 101.393494 Z M 265.700012 106.928497 L 265.700012 105.938507 L 271.100006 105.938507 L 271.100006 104.309509 L 272 104.309509 L 272 106.928497 Z M 272.089996 110.069489 C 272.089996 110.5495 271.953491 110.912506 271.680511 111.158508 C 271.407501 111.40451 271.015991 111.527496 270.506012 111.527496 L 270.145996 111.527496 L 270.145996 110.591492 L 270.578003 110.591492 C 270.985992 110.591492 271.190002 110.420502 271.190002 110.078491 C 271.190002 109.910492 271.140503 109.78299 271.041504 109.696014 C 270.942505 109.609009 270.782013 109.565491 270.559998 109.565491 C 270.29599 109.565491 270.063507 109.625488 269.862488 109.745514 C 269.661499 109.865509 269.420013 110.087494 269.138 110.411499 C 268.777985 110.819489 268.452515 111.104492 268.161499 111.26651 C 267.870483 111.428497 267.541992 111.509491 267.175995 111.509491 C 266.678009 111.509491 266.292511 111.383514 266.019501 111.1315 C 265.74649 110.879486 265.609985 110.513489 265.609985 110.033508 C 265.609985 109.559509 265.74649 109.200989 266.019501 108.958008 C 266.292511 108.714996 266.68399 108.593506 267.194 108.593506 L 267.454987 108.593506 L 267.454987 109.52951 L 267.131012 109.52951 C 266.915009 109.52951 266.757507 109.571503 266.658508 109.655487 C 266.559509 109.739502 266.51001 109.862488 266.51001 110.024506 C 266.51001 110.354492 266.710999 110.519501 267.113007 110.519501 C 267.341003 110.519501 267.553986 110.458008 267.752014 110.334991 C 267.950012 110.212006 268.190002 109.988495 268.471985 109.66449 C 268.832001 109.250488 269.158997 108.965515 269.453003 108.809509 C 269.747009 108.653503 270.09201 108.5755 270.488007 108.5755 C 271.003998 108.5755 271.399994 108.703003 271.675995 108.958008 C 271.951996 109.213013 272.089996 109.583496 272.089996 110.069489 Z"/>
        <path id="SPEED" fill="#151515" fill-rule="evenodd" stroke="none" d="M 164.839996 154.699997 L 166.352005 154.699997 C 166.843994 154.699997 167.212997 154.832001 167.459 155.095993 C 167.705002 155.360001 167.828003 155.746994 167.828003 156.257004 L 167.828003 159.442993 C 167.828003 159.953003 167.705002 160.339996 167.459 160.604004 C 167.212997 160.867996 166.843994 161 166.352005 161 L 164.839996 161 Z M 166.334 160.100006 C 166.496002 160.100006 166.620499 160.052002 166.707504 159.955994 C 166.794495 159.860001 166.837997 159.703995 166.837997 159.488007 L 166.837997 156.212006 C 166.837997 155.996002 166.794495 155.839996 166.707504 155.744003 C 166.620499 155.647995 166.496002 155.600006 166.334 155.600006 L 165.830002 155.600006 L 165.830002 160.100006 Z M 160.492996 154.699997 L 163.192993 154.699997 L 163.192993 155.600006 L 161.483002 155.600006 L 161.483002 157.264999 L 162.841995 157.264999 L 162.841995 158.164993 L 161.483002 158.164993 L 161.483002 160.100006 L 163.192993 160.100006 L 163.192993 161 L 160.492996 161 Z M 156.145996 154.699997 L 158.845993 154.699997 L 158.845993 155.600006 L 157.136002 155.600006 L 157.136002 157.264999 L 158.494995 157.264999 L 158.494995 158.164993 L 157.136002 158.164993 L 157.136002 160.100006 L 158.845993 160.100006 L 158.845993 161 L 156.145996 161 Z M 151.591995 154.699997 L 153.050003 154.699997 C 153.542007 154.699997 153.910995 154.832001 154.156998 155.095993 C 154.403 155.360001 154.526001 155.746994 154.526001 156.257004 L 154.526001 156.878006 C 154.526001 157.388 154.403 157.774994 154.156998 158.039001 C 153.910995 158.303009 153.542007 158.434998 153.050003 158.434998 L 152.582001 158.434998 L 152.582001 161 L 151.591995 161 Z M 153.050003 157.535004 C 153.212006 157.535004 153.333496 157.490005 153.414505 157.399994 C 153.495499 157.309998 153.535995 157.156998 153.535995 156.940994 L 153.535995 156.194 C 153.535995 155.977997 153.495499 155.824997 153.414505 155.735001 C 153.333496 155.645004 153.212006 155.600006 153.050003 155.600006 L 152.582001 155.600006 L 152.582001 157.535004 Z M 148.451004 161.089996 C 147.970993 161.089996 147.608002 160.953506 147.362 160.680496 C 147.115997 160.407501 146.992996 160.016006 146.992996 159.505997 L 146.992996 159.145996 L 147.929001 159.145996 L 147.929001 159.578003 C 147.929001 159.986008 148.100006 160.190002 148.442001 160.190002 C 148.610001 160.190002 148.737503 160.140503 148.824493 160.041504 C 148.911499 159.942505 148.955002 159.781998 148.955002 159.559998 C 148.955002 159.296005 148.895004 159.063507 148.774994 158.862503 C 148.654999 158.661499 148.432999 158.419998 148.108994 158.138 C 147.701004 157.778 147.416 157.452499 147.253998 157.161499 C 147.091995 156.870499 147.011002 156.542007 147.011002 156.175995 C 147.011002 155.677994 147.136993 155.292496 147.389008 155.019501 C 147.641006 154.746506 148.007004 154.610001 148.487 154.610001 C 148.960999 154.610001 149.319504 154.746506 149.5625 155.019501 C 149.805496 155.292496 149.927002 155.68399 149.927002 156.194 L 149.927002 156.455002 L 148.990997 156.455002 L 148.990997 156.130997 C 148.990997 155.914993 148.949005 155.757507 148.865005 155.658493 C 148.781006 155.559494 148.658005 155.509995 148.496002 155.509995 C 148.166 155.509995 148.001007 155.710999 148.001007 156.113007 C 148.001007 156.341003 148.0625 156.554001 148.185501 156.751999 C 148.308502 156.949997 148.531998 157.190002 148.856003 157.472 C 149.270004 157.832001 149.554993 158.158997 149.710999 158.453003 C 149.867004 158.747009 149.945007 159.091995 149.945007 159.488007 C 149.945007 160.003998 149.817505 160.399994 149.5625 160.675995 C 149.307495 160.951996 148.936996 161.089996 148.451004 161.089996 Z"/>
        <path id="GRAIN" fill="#151515" fill-rule="evenodd" stroke="none" d="M 104.308998 242.699997 L 105.551003 242.699997 L 106.514 246.470993 L 106.531998 246.470993 L 106.531998 242.699997 L 107.414001 242.699997 L 107.414001 249 L 106.397003 249 L 105.209 244.401001 L 105.191002 244.401001 L 105.191002 249 L 104.308998 249 Z M 101.500999 242.699997 L 102.490997 242.699997 L 102.490997 249 L 101.500999 249 Z M 97.576996 242.699997 L 98.917999 242.699997 L 99.944 249 L 98.954002 249 L 98.774002 247.748993 L 98.774002 247.766998 L 97.649002 247.766998 L 97.469002 249 L 96.551003 249 Z M 98.656998 246.912003 L 98.216003 243.798004 L 98.197998 243.798004 L 97.765999 246.912003 Z M 92.105003 242.699997 L 93.571999 242.699997 C 94.082001 242.699997 94.453995 242.818497 94.688004 243.055496 C 94.921997 243.292496 95.039001 243.656998 95.039001 244.149002 L 95.039001 244.535995 C 95.039001 245.190002 94.822998 245.604004 94.390999 245.778 L 94.390999 245.796005 C 94.631004 245.867996 94.800499 246.014999 94.899498 246.237 C 94.998505 246.459 95.048004 246.755997 95.048004 247.128006 L 95.048004 248.235001 C 95.048004 248.415009 95.054001 248.560501 95.066002 248.671494 C 95.078003 248.782501 95.108002 248.891998 95.155998 249 L 94.148003 249 C 94.112 248.897995 94.087997 248.802002 94.076004 248.712006 C 94.064003 248.621994 94.057999 248.460007 94.057999 248.225998 L 94.057999 247.074005 C 94.057999 246.785995 94.011497 246.585007 93.918503 246.470993 C 93.8255 246.356995 93.665001 246.300003 93.436996 246.300003 L 93.095001 246.300003 L 93.095001 249 L 92.105003 249 Z M 93.455002 245.399994 C 93.653 245.399994 93.801498 245.348999 93.900497 245.246994 C 93.999496 245.145004 94.048996 244.973999 94.048996 244.733994 L 94.048996 244.248001 C 94.048996 244.020004 94.008499 243.854996 93.927498 243.753006 C 93.846497 243.651001 93.719002 243.600006 93.544998 243.600006 L 93.095001 243.600006 L 93.095001 245.399994 Z M 88.910004 249.089996 C 88.43 249.089996 88.064003 248.953506 87.811996 248.680496 C 87.559998 248.407501 87.433998 248.016006 87.433998 247.505997 L 87.433998 244.194 C 87.433998 243.68399 87.559998 243.292496 87.811996 243.019501 C 88.064003 242.746506 88.43 242.610001 88.910004 242.610001 C 89.389999 242.610001 89.755997 242.746506 90.008003 243.019501 C 90.260002 243.292496 90.386002 243.68399 90.386002 244.194 L 90.386002 244.733994 L 89.449997 244.733994 L 89.449997 244.130997 C 89.449997 243.716995 89.278999 243.509995 88.936996 243.509995 C 88.595001 243.509995 88.424004 243.716995 88.424004 244.130997 L 88.424004 247.578003 C 88.424004 247.986008 88.595001 248.190002 88.936996 248.190002 C 89.278999 248.190002 89.449997 247.986008 89.449997 247.578003 L 89.449997 246.345001 L 88.955002 246.345001 L 88.955002 245.445007 L 90.386002 245.445007 L 90.386002 247.505997 C 90.386002 248.016006 90.260002 248.407501 90.008003 248.680496 C 89.755997 248.953506 89.389999 249.089996 88.910004 249.089996 Z"/>
        <path id="DENS" fill="#151515" fill-rule="evenodd" stroke="none" d="M 164.444 249.089996 C 163.963989 249.089996 163.600998 248.953506 163.354996 248.680496 C 163.108994 248.407501 162.985992 248.016006 162.985992 247.505997 L 162.985992 247.145996 L 163.921997 247.145996 L 163.921997 247.578003 C 163.921997 247.986008 164.093002 248.190002 164.434998 248.190002 C 164.602997 248.190002 164.730499 248.140503 164.817505 248.041504 C 164.904495 247.942505 164.947998 247.781998 164.947998 247.559998 C 164.947998 247.296005 164.888 247.063507 164.768005 246.862503 C 164.647995 246.661499 164.425995 246.419998 164.102005 246.138 C 163.694 245.778 163.408997 245.452499 163.246994 245.161499 C 163.084991 244.870499 163.003998 244.542007 163.003998 244.175995 C 163.003998 243.677994 163.130005 243.292496 163.382004 243.019501 C 163.634003 242.746506 164 242.610001 164.479996 242.610001 C 164.95401 242.610001 165.3125 242.746506 165.555496 243.019501 C 165.798508 243.292496 165.919998 243.68399 165.919998 244.194 L 165.919998 244.455002 L 164.983994 244.455002 L 164.983994 244.130997 C 164.983994 243.914993 164.942001 243.757507 164.858002 243.658493 C 164.774002 243.559494 164.651001 243.509995 164.488998 243.509995 C 164.158997 243.509995 163.994003 243.710999 163.994003 244.113007 C 163.994003 244.341003 164.055496 244.554001 164.178497 244.751999 C 164.301498 244.949997 164.524994 245.190002 164.848999 245.472 C 165.263 245.832001 165.548004 246.158997 165.703995 246.453003 C 165.860001 246.747009 165.938004 247.091995 165.938004 247.488007 C 165.938004 248.003998 165.810501 248.399994 165.555496 248.675995 C 165.300507 248.951996 164.930008 249.089996 164.444 249.089996 Z M 158.233994 242.699997 L 159.475998 242.699997 L 160.438995 246.470993 L 160.457001 246.470993 L 160.457001 242.699997 L 161.339005 242.699997 L 161.339005 249 L 160.322006 249 L 159.134003 244.401001 L 159.115997 244.401001 L 159.115997 249 L 158.233994 249 Z M 153.886993 242.699997 L 156.587006 242.699997 L 156.587006 243.600006 L 154.876999 243.600006 L 154.876999 245.264999 L 156.235992 245.264999 L 156.235992 246.164993 L 154.876999 246.164993 L 154.876999 248.100006 L 156.587006 248.100006 L 156.587006 249 L 153.886993 249 Z M 149.153 242.699997 L 150.664993 242.699997 C 151.156998 242.699997 151.526001 242.832001 151.772003 243.095993 C 152.018005 243.360001 152.141006 243.746994 152.141006 244.257004 L 152.141006 247.442993 C 152.141006 247.953003 152.018005 248.339996 151.772003 248.604004 C 151.526001 248.867996 151.156998 249 150.664993 249 L 149.153 249 Z M 150.647003 248.100006 C 150.809006 248.100006 150.933502 248.052002 151.020508 247.955994 C 151.107498 247.860001 151.151001 247.703995 151.151001 247.488007 L 151.151001 244.212006 C 151.151001 243.996002 151.107498 243.839996 151.020508 243.744003 C 150.933502 243.647995 150.809006 243.600006 150.647003 243.600006 L 150.143005 243.600006 L 150.143005 248.100006 Z"/>
        <path id="SCAN" fill="#151515" fill-rule="evenodd" stroke="none" d="M 222.729492 242.699997 L 223.971497 242.699997 L 224.934494 246.470993 L 224.952499 246.470993 L 224.952499 242.699997 L 225.834503 242.699997 L 225.834503 249 L 224.817505 249 L 223.629501 244.401001 L 223.611496 244.401001 L 223.611496 249 L 222.729492 249 Z M 218.805496 242.699997 L 220.1465 242.699997 L 221.172501 249 L 220.182495 249 L 220.002502 247.748993 L 220.002502 247.766998 L 218.877502 247.766998 L 218.697495 249 L 217.779495 249 Z M 219.885498 246.912003 L 219.444504 243.798004 L 219.426498 243.798004 L 218.994507 246.912003 Z M 214.908493 249.089996 C 214.434494 249.089996 214.072998 248.955002 213.824005 248.684998 C 213.574997 248.414993 213.4505 248.033997 213.4505 247.541992 L 213.4505 244.158005 C 213.4505 243.666 213.574997 243.285004 213.824005 243.014999 C 214.072998 242.744995 214.434494 242.610001 214.908493 242.610001 C 215.382507 242.610001 215.744003 242.744995 215.992996 243.014999 C 216.242004 243.285004 216.366501 243.666 216.366501 244.158005 L 216.366501 244.824005 L 215.430496 244.824005 L 215.430496 244.095001 C 215.430496 243.705002 215.265503 243.509995 214.935501 243.509995 C 214.605499 243.509995 214.440506 243.705002 214.440506 244.095001 L 214.440506 247.613998 C 214.440506 247.998001 214.605499 248.190002 214.935501 248.190002 C 215.265503 248.190002 215.430496 247.998001 215.430496 247.613998 L 215.430496 246.651001 L 216.366501 246.651001 L 216.366501 247.541992 C 216.366501 248.033997 216.242004 248.414993 215.992996 248.684998 C 215.744003 248.955002 215.382507 249.089996 214.908493 249.089996 Z M 210.372498 249.089996 C 209.892502 249.089996 209.529495 248.953506 209.283493 248.680496 C 209.037506 248.407501 208.914505 248.016006 208.914505 247.505997 L 208.914505 247.145996 L 209.850494 247.145996 L 209.850494 247.578003 C 209.850494 247.986008 210.0215 248.190002 210.363495 248.190002 C 210.531494 248.190002 210.658997 248.140503 210.746002 248.041504 C 210.833008 247.942505 210.876495 247.781998 210.876495 247.559998 C 210.876495 247.296005 210.816498 247.063507 210.696503 246.862503 C 210.576492 246.661499 210.354507 246.419998 210.030502 246.138 C 209.622498 245.778 209.337494 245.452499 209.175507 245.161499 C 209.013504 244.870499 208.932495 244.542007 208.932495 244.175995 C 208.932495 243.677994 209.058502 243.292496 209.310501 243.019501 C 209.5625 242.746506 209.928497 242.610001 210.408493 242.610001 C 210.882507 242.610001 211.240997 242.746506 211.483994 243.019501 C 211.727005 243.292496 211.848495 243.68399 211.848495 244.194 L 211.848495 244.455002 L 210.912506 244.455002 L 210.912506 244.130997 C 210.912506 243.914993 210.870499 243.757507 210.786499 243.658493 C 210.702499 243.559494 210.579498 243.509995 210.417496 243.509995 C 210.087494 243.509995 209.922501 243.710999 209.922501 244.113007 C 209.922501 244.341003 209.983994 244.554001 210.106995 244.751999 C 210.229996 244.949997 210.453491 245.190002 210.777496 245.472 C 211.191498 245.832001 211.476501 246.158997 211.632507 246.453003 C 211.788498 246.747009 211.866501 247.091995 211.866501 247.488007 C 211.866501 248.003998 211.738998 248.399994 211.483994 248.675995 C 211.229004 248.951996 210.858505 249.089996 210.372498 249.089996 Z"/>
        <path id="IN-L" fill="#151515" fill-rule="evenodd" stroke="none" d="M 4.2 320.593506 L 4.2 319.603516 L 9.6 319.603516 L 9.6 317.974487 L 10.5 317.974487 L 10.5 320.593506 Z M 4.2 328.036499 L 4.2 326.794495 L 7.971 325.831512 L 7.971 325.813507 L 4.2 325.813507 L 4.2 324.931488 L 10.5 324.931488 L 10.5 325.948486 L 5.901 327.136505 L 5.901 327.15451 L 10.5 327.15451 L 10.5 328.036499 Z M 4.2 330.844513 L 4.2 329.854492 L 10.5 329.854492 L 10.5 330.844513 Z"/>
        <path id="IN-R" fill="#151515" fill-rule="evenodd" stroke="none" d="M 4.2 350.859009 L 4.2 349.391998 C 4.2 348.881989 4.318499 348.51001 4.5555 348.276001 C 4.792501 348.041992 5.156998 347.924988 5.649 347.924988 L 6.036 347.924988 C 6.690003 347.924988 7.103999 348.140991 7.278 348.572998 L 7.296 348.572998 C 7.368001 348.333008 7.514999 348.163513 7.737 348.064514 C 7.959001 347.965515 8.255999 347.916016 8.628 347.916016 L 9.735 347.916016 C 9.915001 347.916016 10.060499 347.910004 10.1715 347.89801 C 10.2825 347.885986 10.391999 347.855988 10.5 347.807983 L 10.5 348.81601 C 10.398 348.85199 10.302 348.876007 10.212 348.888 C 10.122 348.899994 9.960001 348.906006 9.726 348.906006 L 8.573999 348.906006 C 8.285998 348.906006 8.085001 348.952515 7.971 349.045502 C 7.856999 349.138489 7.8 349.299011 7.8 349.527008 L 7.8 349.868988 L 10.5 349.868988 L 10.5 350.859009 Z M 6.9 349.509003 C 6.9 349.311005 6.849 349.162506 6.747 349.063507 C 6.645 348.964508 6.474001 348.915009 6.234 348.915009 L 5.748 348.915009 C 5.519999 348.915009 5.355 348.955505 5.253 349.036499 C 5.150999 349.117493 5.1 349.244995 5.1 349.419006 L 5.1 349.868988 L 6.9 349.868988 Z M 4.2 358.302002 L 4.2 357.059998 L 7.971 356.096985 L 7.971 356.07901 L 4.2 356.07901 L 4.2 355.196991 L 10.5 355.196991 L 10.5 356.213989 L 5.901 357.402008 L 5.901 357.420013 L 10.5 357.420013 L 10.5 358.302002 Z M 4.2 361.109985 L 4.2 360.119995 L 10.5 360.119995 L 10.5 361.109985 Z"/>
        <path id="MIX" fill="#151515" fill-rule="evenodd" stroke="none" d="M 64.239998 304.778015 L 63.151001 301.700012 L 64.195 301.700012 L 64.861 303.734009 L 64.878998 303.734009 L 65.563004 301.700012 L 66.499001 301.700012 L 65.410004 304.778015 L 66.553001 308 L 65.509003 308 L 64.789001 305.804016 L 64.770996 305.804016 L 64.033005 308 L 63.097 308 Z M 60.558998 301.700012 L 61.549 301.700012 L 61.549 308 L 60.558998 308 Z M 54.637001 301.700012 L 56.049999 301.700012 L 56.68 306.208984 L 56.697998 306.208984 L 57.327999 301.700012 L 58.741001 301.700012 L 58.741001 308 L 57.805 308 L 57.805 303.230011 L 57.786999 303.230011 L 57.067001 308 L 56.238998 308 L 55.519001 303.230011 L 55.500999 303.230011 L 55.500999 308 L 54.637001 308 Z"/>
        <path id="CLOCK" fill="#151515" fill-rule="evenodd" stroke="none" d="M 134.903 319.700012 L 135.893005 319.700012 L 135.893005 322.355011 L 137.153 319.700012 L 138.143005 319.700012 L 136.964005 322.013 L 138.160995 326 L 137.126007 326 L 136.289001 323.192017 L 135.893005 323.993011 L 135.893005 326 L 134.903 326 Z M 131.770996 326.089996 C 131.296997 326.089996 130.935501 325.955017 130.686493 325.684998 C 130.4375 325.415009 130.313004 325.033997 130.313004 324.541992 L 130.313004 321.15799 C 130.313004 320.665985 130.4375 320.285004 130.686493 320.015015 C 130.935501 319.744995 131.296997 319.609985 131.770996 319.609985 C 132.244995 319.609985 132.606506 319.744995 132.855499 320.015015 C 133.104507 320.285004 133.229004 320.665985 133.229004 321.15799 L 133.229004 321.824005 L 132.292999 321.824005 L 132.292999 321.095001 C 132.292999 320.704987 132.128006 320.51001 131.798004 320.51001 C 131.468002 320.51001 131.302994 320.704987 131.302994 321.095001 L 131.302994 324.614014 C 131.302994 324.997986 131.468002 325.190002 131.798004 325.190002 C 132.128006 325.190002 132.292999 324.997986 132.292999 324.614014 L 132.292999 323.651001 L 133.229004 323.651001 L 133.229004 324.541992 C 133.229004 325.033997 133.104507 325.415009 132.855499 325.684998 C 132.606506 325.955017 132.244995 326.089996 131.770996 326.089996 Z M 127.126999 326.089996 C 126.640999 326.089996 126.268997 325.951996 126.011002 325.675995 C 125.752998 325.399994 125.624001 325.01001 125.624001 324.506012 L 125.624001 321.194 C 125.624001 320.690002 125.752998 320.299988 126.011002 320.023987 C 126.268997 319.747986 126.640999 319.609985 127.126999 319.609985 C 127.613007 319.609985 127.985001 319.747986 128.242996 320.023987 C 128.501007 320.299988 128.630005 320.690002 128.630005 321.194 L 128.630005 324.506012 C 128.630005 325.01001 128.501007 325.399994 128.242996 325.675995 C 127.985001 325.951996 127.613007 326.089996 127.126999 326.089996 Z M 127.126999 325.190002 C 127.469002 325.190002 127.639999 324.983002 127.639999 324.569 L 127.639999 321.131012 C 127.639999 320.71701 127.469002 320.51001 127.126999 320.51001 C 126.784996 320.51001 126.613998 320.71701 126.613998 321.131012 L 126.613998 324.569 C 126.613998 324.983002 126.784996 325.190002 127.126999 325.190002 Z M 121.556 319.700012 L 122.545998 319.700012 L 122.545998 325.100006 L 124.175003 325.100006 L 124.175003 326 L 121.556 326 Z M 118.424004 326.089996 C 117.949997 326.089996 117.588501 325.955017 117.3395 325.684998 C 117.0905 325.415009 116.966003 325.033997 116.966003 324.541992 L 116.966003 321.15799 C 116.966003 320.665985 117.0905 320.285004 117.3395 320.015015 C 117.588501 319.744995 117.949997 319.609985 118.424004 319.609985 C 118.898003 319.609985 119.259499 319.744995 119.508499 320.015015 C 119.7575 320.285004 119.882004 320.665985 119.882004 321.15799 L 119.882004 321.824005 L 118.945999 321.824005 L 118.945999 321.095001 C 118.945999 320.704987 118.780998 320.51001 118.450996 320.51001 C 118.121002 320.51001 117.956001 320.704987 117.956001 321.095001 L 117.956001 324.614014 C 117.956001 324.997986 118.121002 325.190002 118.450996 325.190002 C 118.780998 325.190002 118.945999 324.997986 118.945999 324.614014 L 118.945999 323.651001 L 119.882004 323.651001 L 119.882004 324.541992 C 119.882004 325.033997 119.7575 325.415009 119.508499 325.684998 C 119.259499 325.955017 118.898003 326.089996 118.424004 326.089996 Z"/>
        <path id="GATE" fill="#151515" fill-rule="evenodd" stroke="none" d="M 192.810501 319.700012 L 195.510498 319.700012 L 195.510498 320.600006 L 193.800507 320.600006 L 193.800507 322.265015 L 195.1595 322.265015 L 195.1595 323.165009 L 193.800507 323.165009 L 193.800507 325.100006 L 195.510498 325.100006 L 195.510498 326 L 192.810501 326 Z M 189.2285 320.600006 L 188.193497 320.600006 L 188.193497 319.700012 L 191.253494 319.700012 L 191.253494 320.600006 L 190.218506 320.600006 L 190.218506 326 L 189.2285 326 Z M 184.944504 319.700012 L 186.285492 319.700012 L 187.311493 326 L 186.321503 326 L 186.141495 324.748993 L 186.141495 324.766998 L 185.016495 324.766998 L 184.836502 326 L 183.918503 326 Z M 186.024506 323.911987 L 185.583496 320.798004 L 185.565506 320.798004 L 185.133499 323.911987 Z M 180.984497 326.089996 C 180.504501 326.089996 180.138504 325.953491 179.886505 325.680511 C 179.634491 325.407501 179.508499 325.015991 179.508499 324.506012 L 179.508499 321.194 C 179.508499 320.68399 179.634491 320.292511 179.886505 320.019501 C 180.138504 319.74649 180.504501 319.609985 180.984497 319.609985 C 181.464508 319.609985 181.830505 319.74649 182.082504 320.019501 C 182.334503 320.292511 182.460495 320.68399 182.460495 321.194 L 182.460495 321.734009 L 181.524506 321.734009 L 181.524506 321.131012 C 181.524506 320.71701 181.3535 320.51001 181.011505 320.51001 C 180.669495 320.51001 180.498505 320.71701 180.498505 321.131012 L 180.498505 324.578003 C 180.498505 324.985992 180.669495 325.190002 181.011505 325.190002 C 181.3535 325.190002 181.524506 324.985992 181.524506 324.578003 L 181.524506 323.345001 L 181.029495 323.345001 L 181.029495 322.445007 L 182.460495 322.445007 L 182.460495 324.506012 C 182.460495 325.015991 182.334503 325.407501 182.082504 325.680511 C 181.830505 325.953491 181.464508 326.089996 180.984497 326.089996 Z"/>
        <path id="EOC" fill="#151515" fill-rule="evenodd" stroke="none" d="M 239.589996 319.985992 C 239.589996 320.459991 239.455002 320.821503 239.184998 321.070496 C 238.914993 321.319489 238.533997 321.444 238.041992 321.444 L 234.658005 321.444 C 234.166 321.444 233.785004 321.319489 233.514999 321.070496 C 233.244995 320.821503 233.110001 320.459991 233.110001 319.985992 C 233.110001 319.511993 233.244995 319.150513 233.514999 318.901489 C 233.785004 318.652496 234.166 318.528015 234.658005 318.528015 L 235.324005 318.528015 L 235.324005 319.463989 L 234.595001 319.463989 C 234.205002 319.463989 234.009995 319.628998 234.009995 319.958984 C 234.009995 320.289001 234.205002 320.45401 234.595001 320.45401 L 238.113998 320.45401 C 238.498001 320.45401 238.690002 320.289001 238.690002 319.958984 C 238.690002 319.628998 238.498001 319.463989 238.113998 319.463989 L 237.151001 319.463989 L 237.151001 318.528015 L 238.041992 318.528015 C 238.533997 318.528015 238.914993 318.652496 239.184998 318.901489 C 239.455002 319.150513 239.589996 319.511993 239.589996 319.985992 Z M 239.589996 324.630005 C 239.589996 325.115997 239.451996 325.488007 239.175995 325.746002 C 238.899994 326.003998 238.51001 326.132996 238.005997 326.132996 L 234.694 326.132996 C 234.190002 326.132996 233.800003 326.003998 233.524002 325.746002 C 233.248001 325.488007 233.110001 325.115997 233.110001 324.630005 C 233.110001 324.143982 233.248001 323.772003 233.524002 323.514008 C 233.800003 323.255981 234.190002 323.127014 234.694 323.127014 L 238.005997 323.127014 C 238.51001 323.127014 238.899994 323.255981 239.175995 323.514008 C 239.451996 323.772003 239.589996 324.143982 239.589996 324.630005 Z M 238.690002 324.630005 C 238.690002 324.287994 238.483002 324.117004 238.069 324.117004 L 234.630997 324.117004 C 234.216995 324.117004 234.009995 324.287994 234.009995 324.630005 C 234.009995 324.971985 234.216995 325.143005 234.630997 325.143005 L 238.069 325.143005 C 238.483002 325.143005 238.690002 324.971985 238.690002 324.630005 Z M 233.199997 330.40799 L 233.199997 327.708008 L 234.100006 327.708008 L 234.100006 329.417999 L 235.764999 329.417999 L 235.764999 328.05899 L 236.664993 328.05899 L 236.664993 329.417999 L 238.600006 329.417999 L 238.600006 327.708008 L 239.5 327.708008 L 239.5 330.40799 Z"/>
        <path id="ENV" fill="#151515" fill-rule="evenodd" stroke="none" d="M 233.699997 350.515991 L 233.699997 349.516998 L 238.587006 348.868988 L 238.587006 348.851013 L 233.699997 348.203003 L 233.699997 347.294006 L 240 348.247986 L 240 349.562012 Z M 233.699997 355.178009 L 233.699997 353.936005 L 237.470993 352.972992 L 237.470993 352.954987 L 233.699997 352.954987 L 233.699997 352.072998 L 240 352.072998 L 240 353.089996 L 235.401001 354.278015 L 235.401001 354.29599 L 240 354.29599 L 240 355.178009 Z M 233.699997 359.524994 L 233.699997 356.825012 L 234.600006 356.825012 L 234.600006 358.535004 L 236.264999 358.535004 L 236.264999 357.175995 L 237.164993 357.175995 L 237.164993 358.535004 L 239.100006 358.535004 L 239.100006 356.825012 L 240 356.825012 L 240 359.524994 Z"/>
        <path id="OUT-L" fill="#151515" fill-rule="evenodd" stroke="none" d="M 311.299988 331.40799 L 311.299988 332.39801 L 305.899994 332.39801 L 305.899994 334.027008 L 305 334.027008 L 305 331.40799 Z M 310.399994 325.306 L 310.399994 324.270996 L 311.299988 324.270996 L 311.299988 327.330994 L 310.399994 327.330994 L 310.399994 326.29599 L 305 326.29599 L 305 325.306 Z M 304.910004 321.273987 C 304.910004 320.794006 305.046509 320.428009 305.319489 320.175995 C 305.592499 319.924011 305.984009 319.798004 306.493988 319.798004 L 311.299988 319.798004 L 311.299988 320.787994 L 306.421997 320.787994 C 306.205994 320.787994 306.049988 320.831482 305.95401 320.918488 C 305.858002 321.005493 305.809998 321.130005 305.809998 321.291992 C 305.809998 321.45401 305.858002 321.578491 305.95401 321.665497 C 306.049988 321.752502 306.205994 321.79599 306.421997 321.79599 L 311.299988 321.79599 L 311.299988 322.75 L 306.493988 322.75 C 305.984009 322.75 305.592499 322.623993 305.319489 322.372009 C 305.046509 322.119995 304.910004 321.753998 304.910004 321.273987 Z M 304.910004 316.584991 C 304.910004 316.098999 305.048004 315.72699 305.324005 315.468994 C 305.600006 315.210999 305.98999 315.082001 306.493988 315.082001 L 309.806 315.082001 C 310.309998 315.082001 310.700012 315.210999 310.976013 315.468994 C 311.252014 315.72699 311.390015 316.098999 311.390015 316.584991 C 311.390015 317.071014 311.252014 317.442993 310.976013 317.700989 C 310.700012 317.958984 310.309998 318.088013 309.806 318.088013 L 306.493988 318.088013 C 305.98999 318.088013 305.600006 317.958984 305.324005 317.700989 C 305.048004 317.442993 304.910004 317.071014 304.910004 316.584991 Z M 305.809998 316.584991 C 305.809998 316.927002 306.016998 317.097992 306.431 317.097992 L 309.868988 317.097992 C 310.28299 317.097992 310.48999 316.927002 310.48999 316.584991 C 310.48999 316.242981 310.28299 316.071991 309.868988 316.071991 L 306.431 316.071991 C 306.016998 316.071991 305.809998 316.242981 305.809998 316.584991 Z"/>
        <path id="OUT-R" fill="#151515" fill-rule="evenodd" stroke="none" d="M 311.299988 360.142487 L 311.299988 361.609497 C 311.299988 362.119507 311.181488 362.491486 310.944489 362.725494 C 310.707489 362.959503 310.343018 363.076508 309.851013 363.076508 L 309.463989 363.076508 C 308.809998 363.076508 308.395996 362.860504 308.221985 362.428497 L 308.20401 362.428497 C 308.131989 362.668488 307.985016 362.838013 307.763 362.937012 C 307.540985 363.036011 307.243988 363.08551 306.872009 363.08551 L 305.765015 363.08551 C 305.584991 363.08551 305.439514 363.091492 305.328491 363.103516 C 305.217499 363.115509 305.108002 363.145508 305 363.193512 L 305 362.185486 C 305.10199 362.149506 305.197998 362.125488 305.287994 362.113495 C 305.377991 362.101501 305.540009 362.09549 305.773987 362.09549 L 306.925995 362.09549 C 307.213989 362.09549 307.415009 362.049011 307.528992 361.955994 C 307.643005 361.863007 307.700012 361.702515 307.700012 361.474487 L 307.700012 361.132507 L 305 361.132507 L 305 360.142487 Z M 308.600006 361.492493 C 308.600006 361.690491 308.651001 361.838989 308.752991 361.937988 C 308.855011 362.036987 309.026001 362.086487 309.265991 362.086487 L 309.752014 362.086487 C 309.980011 362.086487 310.144989 362.04599 310.247009 361.964996 C 310.348999 361.884003 310.399994 361.7565 310.399994 361.582489 L 310.399994 361.132507 L 308.600006 361.132507 Z M 310.399994 354.040497 L 310.399994 353.005493 L 311.299988 353.005493 L 311.299988 356.065491 L 310.399994 356.065491 L 310.399994 355.030487 L 305 355.030487 L 305 354.040497 Z M 304.910004 350.008484 C 304.910004 349.528503 305.046509 349.162506 305.319489 348.910492 C 305.592499 348.658508 305.984009 348.532501 306.493988 348.532501 L 311.299988 348.532501 L 311.299988 349.522491 L 306.421997 349.522491 C 306.205994 349.522491 306.049988 349.56601 305.95401 349.653015 C 305.858002 349.73999 305.809998 349.864502 305.809998 350.026489 C 305.809998 350.188507 305.858002 350.312988 305.95401 350.399994 C 306.049988 350.487 306.205994 350.530487 306.421997 350.530487 L 311.299988 350.530487 L 311.299988 351.484497 L 306.493988 351.484497 C 305.984009 351.484497 305.592499 351.35849 305.319489 351.106506 C 305.046509 350.854492 304.910004 350.488495 304.910004 350.008484 Z M 304.910004 345.319489 C 304.910004 344.833496 305.048004 344.461487 305.324005 344.203491 C 305.600006 343.945496 305.98999 343.816498 306.493988 343.816498 L 309.806 343.816498 C 310.309998 343.816498 310.700012 343.945496 310.976013 344.203491 C 311.252014 344.461487 311.390015 344.833496 311.390015 345.319489 C 311.390015 345.805511 311.252014 346.17749 310.976013 346.435486 C 310.700012 346.693512 310.309998 346.82251 309.806 346.82251 L 306.493988 346.82251 C 305.98999 346.82251 305.600006 346.693512 305.324005 346.435486 C 305.048004 346.17749 304.910004 345.805511 304.910004 345.319489 Z M 305.809998 345.319489 C 305.809998 345.661499 306.016998 345.832489 306.431 345.832489 L 309.868988 345.832489 C 310.28299 345.832489 310.48999 345.661499 310.48999 345.319489 C 310.48999 344.977509 310.28299 344.806488 309.868988 344.806488 L 306.431 344.806488 C 306.016998 344.806488 305.809998 344.977509 305.809998 345.319489 Z"/>
    </g>
    <path id="OUTPUT-PANEL" fill="#151515" fill-rule="evenodd" stroke="none" d="M 242 360 C 242 364.418274 245.581726 368 250 368 L 295 368 C 299.418274 368 303 364.418274 303 360 L 303 320 C 303 315.581726 299.418274 312 295 312 L 250 312 C 245.581726 312 242 315.581726 242 320 Z"/>
    <path id="TAPESTRY" fill="#484848" fill-rule="evenodd" stroke="none" d="M 303.364014 285.627014 L 310.600006 283.233002 L 310.600006 285.338989 L 305.973999 286.688995 L 305.973999 286.725006 L 310.600006 288.075012 L 310.600006 290.001007 L 303.364014 287.606995 L 298 287.606995 L 298 285.627014 Z M 310.600006 275.583008 L 310.600006 278.516998 C 310.600006 279.536987 310.363007 280.281006 309.889008 280.748993 C 309.415009 281.21701 308.686005 281.450989 307.701996 281.450989 L 306.928009 281.450989 C 305.619995 281.450989 304.791992 281.019012 304.444 280.154999 L 304.40799 280.154999 C 304.264008 280.63501 303.970001 280.973999 303.526001 281.171997 C 303.082001 281.369995 302.488007 281.468994 301.743988 281.468994 L 299.529999 281.468994 C 299.169983 281.468994 298.878998 281.481018 298.657013 281.505005 C 298.434998 281.528992 298.216003 281.588989 298 281.684998 L 298 279.669006 C 298.20401 279.596985 298.395996 279.549011 298.575989 279.524994 C 298.756012 279.501007 299.079987 279.489014 299.548004 279.489014 L 301.85199 279.489014 C 302.428009 279.489014 302.829987 279.395996 303.058014 279.209991 C 303.286011 279.023987 303.399994 278.703003 303.399994 278.247009 L 303.399994 277.562988 L 298 277.562988 L 298 275.583008 Z M 305.200012 278.28302 C 305.200012 278.679016 305.302002 278.976013 305.506012 279.174011 C 305.709991 279.372009 306.052002 279.471008 306.532013 279.471008 L 307.503998 279.471008 C 307.959991 279.471008 308.290009 279.390015 308.493988 279.227997 C 308.697998 279.065979 308.799988 278.811005 308.799988 278.463013 L 308.799988 277.562988 L 305.200012 277.562988 Z M 308.799988 269.319 L 308.799988 267.248993 L 310.600006 267.248993 L 310.600006 273.369019 L 308.799988 273.369019 L 308.799988 271.299011 L 298 271.299011 L 298 269.319 Z M 297.820007 262.389008 C 297.820007 261.429016 298.092987 260.703003 298.639008 260.210999 C 299.184998 259.718994 299.967987 259.472992 300.988007 259.472992 L 301.708008 259.472992 L 301.708008 261.345001 L 300.843994 261.345001 C 300.027985 261.345001 299.619995 261.687012 299.619995 262.371002 C 299.619995 262.707001 299.718994 262.962006 299.916992 263.135986 C 300.11499 263.309998 300.436005 263.397003 300.880005 263.397003 C 301.40799 263.397003 301.872986 263.277008 302.274994 263.036987 C 302.677002 262.796997 303.160004 262.352997 303.723999 261.705017 C 304.444 260.888977 305.095001 260.319 305.677002 259.994995 C 306.259003 259.67099 306.915985 259.509003 307.64801 259.509003 C 308.644012 259.509003 309.415009 259.760986 309.960999 260.265015 C 310.506989 260.768982 310.779999 261.500977 310.779999 262.460999 C 310.779999 263.408997 310.506989 264.126007 309.960999 264.612 C 309.415009 265.098022 308.632019 265.341003 307.612 265.341003 L 307.089996 265.341003 L 307.089996 263.468994 L 307.738007 263.468994 C 308.170013 263.468994 308.484985 263.38501 308.683014 263.21698 C 308.881012 263.049011 308.980011 262.803009 308.980011 262.479004 C 308.980011 261.819 308.578003 261.489014 307.773987 261.489014 C 307.317993 261.489014 306.891998 261.612 306.496002 261.858002 C 306.100006 262.104004 305.619995 262.550995 305.056 263.199005 C 304.335999 264.027008 303.682007 264.596985 303.093994 264.908997 C 302.505981 265.221008 301.81601 265.377014 301.023987 265.377014 C 299.992004 265.377014 299.200012 265.122009 298.64801 264.612 C 298.096008 264.10199 297.820007 263.361023 297.820007 262.389008 Z M 310.600006 251.985001 L 310.600006 257.38501 L 308.799988 257.38501 L 308.799988 253.964996 L 305.470001 253.964996 L 305.470001 256.682983 L 303.670013 256.682983 L 303.670013 253.964996 L 299.799988 253.964996 L 299.799988 257.38501 L 298 257.38501 L 298 251.985001 Z M 310.600006 243.777008 L 310.600006 246.692993 C 310.600006 247.677002 310.335999 248.414993 309.808014 248.906998 C 309.279999 249.399002 308.506012 249.645004 307.485992 249.645004 L 306.243988 249.645004 C 305.223999 249.645004 304.450012 249.399002 303.921997 248.906998 C 303.393982 248.414993 303.130005 247.677002 303.130005 246.692993 L 303.130005 245.757004 L 298 245.757004 L 298 243.777008 Z M 304.929993 246.692993 C 304.929993 247.016998 305.019989 247.259995 305.200012 247.421997 C 305.380005 247.584 305.686005 247.665009 306.118011 247.665009 L 307.612 247.665009 C 308.044006 247.665009 308.350006 247.584 308.529999 247.421997 C 308.709991 247.259995 308.799988 247.016998 308.799988 246.692993 L 308.799988 245.757004 L 304.929993 245.757004 Z M 310.600006 236.828995 L 310.600006 239.511002 L 298 241.563004 L 298 239.583008 L 300.502014 239.222992 L 300.466003 239.222992 L 300.466003 236.972992 L 298 236.613007 L 298 234.777008 Z M 302.175995 238.988998 L 308.403992 238.106995 L 308.403992 238.070999 L 302.175995 237.207001 Z M 308.799988 229.863007 L 308.799988 227.792999 L 310.600006 227.792999 L 310.600006 233.912994 L 308.799988 233.912994 L 308.799988 231.843002 L 298 231.843002 L 298 229.863007 Z"/>
</svg>
