<?xml version="1.0" encoding="UTF-8"?>
<!-- Generated by Pixelmator Pro 3.7.1 -->
<svg width="60" height="380" viewBox="0 0 60 380" xmlns="http://www.w3.org/2000/svg">
    <g id="Group">
        <path id="Rectangle" fill="#929292" fill-rule="evenodd" stroke="none" d="M 0 380 L 60 380 L 60 0 L 0 0 Z"/>
        <path id="Path-copy" fill="#d5d5d5" stroke="none" d="M 29.917032 365.623474 L 163.952484 415.429138 L 163.952484 318.854553 L 29.952417 269.062744 L 29.917032 365.623474 Z M -95.952484 188.590561 L -95.952484 222.278519 L -11.030287 253.609894 L 163.950958 188.590561 L 163.950958 92.016022 L -95.952484 188.590561 Z M -95.952484 60.574524 L -95.952484 157.148026 L 163.950958 60.574524 L 163.950958 -36 L -95.952484 60.574524 Z"/>
        <g id="Group-copy">
            <path id="Path" fill="#151515" stroke="none" d="M 31.873297 372.961487 L 27.617786 372.961487 L 23.36223 361.580414 L 27.617786 361.580414 L 31.873297 372.961487 Z"/>
            <path id="path1" fill="#151515" stroke="none" d="M 34.743271 372.961487 L 33.258812 372.961487 L 29.003256 361.580414 L 33.258812 361.580414 L 36.12389 369.242767 L 34.743271 372.961487 Z"/>
            <path id="path2" fill="#151515" stroke="none" d="M 41.059769 367.449707 L 43.254452 361.580353 L 38.998894 361.580353 L 36.804817 367.448151 L 41.059769 367.449707 Z"/>
            <path id="path3" fill="#151515" stroke="none" d="M 37.466427 360.037872 L 33.411812 360.037872 C 33.411812 360.037872 33.381641 357.849365 30.310923 357.849365 C 27.240274 357.849365 27.309315 360.530212 27.309315 360.530212 L 23.254704 360.530212 C 23.254704 360.530212 23.10294 354 30.27857 354 C 37.45425 354 37.466427 360.037872 37.466427 360.037872 Z"/>
        </g>
    </g>
    <g id="g1">
        <path id="BITS" fill="#484848" fill-rule="evenodd" stroke="none" d="M 20.931999 47.089996 C 20.451998 47.089996 20.089001 46.953491 19.843 46.680511 C 19.597 46.407501 19.473999 46.015991 19.473999 45.506012 L 19.473999 45.145996 L 20.41 45.145996 L 20.41 45.578003 C 20.41 45.985992 20.580997 46.190002 20.923 46.190002 C 21.091 46.190002 21.218498 46.140503 21.3055 46.041504 C 21.392502 45.942505 21.436001 45.782013 21.436001 45.559998 C 21.436001 45.29599 21.375999 45.063507 21.256001 44.862488 C 21.136 44.661499 20.914001 44.420013 20.59 44.138 C 20.181999 43.777985 19.897001 43.452515 19.735001 43.161499 C 19.572998 42.870483 19.492001 42.541992 19.492001 42.175995 C 19.492001 41.678009 19.618 41.292511 19.869999 41.019501 C 20.122002 40.74649 20.487999 40.609985 20.968 40.609985 C 21.442001 40.609985 21.800499 40.74649 22.043499 41.019501 C 22.286501 41.292511 22.408001 41.68399 22.408001 42.194 L 22.408001 42.454987 L 21.472 42.454987 L 21.472 42.131012 C 21.472 41.915009 21.43 41.757507 21.346001 41.658508 C 21.261999 41.559509 21.139 41.51001 20.977001 41.51001 C 20.646999 41.51001 20.482 41.710999 20.482 42.113007 C 20.482 42.341003 20.543499 42.553986 20.6665 42.752014 C 20.789501 42.950012 21.012999 43.190002 21.337 43.471985 C 21.751003 43.832001 22.035999 44.158997 22.192001 44.453003 C 22.348 44.747009 22.425999 45.09201 22.425999 45.488007 C 22.425999 46.003998 22.2985 46.399994 22.043499 46.675995 C 21.788498 46.951996 21.418003 47.089996 20.931999 47.089996 Z M 16.513 41.600006 L 15.478 41.600006 L 15.478 40.700012 L 18.538 40.700012 L 18.538 41.600006 L 17.503 41.600006 L 17.503 47 L 16.513 47 Z M 13.381001 40.700012 L 14.371 40.700012 L 14.371 47 L 13.381001 47 Z M 9.115 40.700012 L 10.609 40.700012 C 11.119002 40.700012 11.490999 40.818512 11.725 41.055511 C 11.959002 41.292511 12.076 41.656982 12.076 42.148987 L 12.076 42.401001 C 12.076 42.725006 12.0235 42.989014 11.9185 43.192993 C 11.813499 43.397003 11.653002 43.544006 11.437 43.634003 L 11.437 43.652008 C 11.929003 43.820007 12.175 44.257996 12.175 44.966003 L 12.175 45.506012 C 12.175 45.992004 12.047501 46.362488 11.7925 46.617493 C 11.537498 46.872498 11.164002 47 10.672 47 L 9.115 47 Z M 10.492001 43.265015 C 10.690001 43.265015 10.838499 43.213989 10.9375 43.112 C 11.036501 43.01001 11.086 42.838989 11.086 42.598999 L 11.086 42.247986 C 11.086 42.019989 11.0455 41.855011 10.9645 41.752991 C 10.883499 41.651001 10.756001 41.600006 10.582 41.600006 L 10.105 41.600006 L 10.105 43.265015 Z M 10.672 46.100006 C 10.846001 46.100006 10.974999 46.053497 11.059 45.96051 C 11.143001 45.867493 11.184999 45.707001 11.184999 45.479004 L 11.184999 44.929993 C 11.184999 44.641998 11.1355 44.442505 11.0365 44.331512 C 10.9375 44.22049 10.774001 44.165009 10.546 44.165009 L 10.105 44.165009 L 10.105 46.100006 Z"/>
        <path id="RATE" fill="#484848" fill-rule="evenodd" stroke="none" d="M 50.414501 40.700012 L 53.114502 40.700012 L 53.114502 41.600006 L 51.404499 41.600006 L 51.404499 43.265015 L 52.7635 43.265015 L 52.7635 44.165009 L 51.404499 44.165009 L 51.404499 46.100006 L 53.114502 46.100006 L 53.114502 47 L 50.414501 47 Z M 47.282501 41.600006 L 46.247501 41.600006 L 46.247501 40.700012 L 49.307499 40.700012 L 49.307499 41.600006 L 48.272499 41.600006 L 48.272499 47 L 47.282501 47 Z M 43.448502 40.700012 L 44.789501 40.700012 L 45.815498 47 L 44.8255 47 L 44.6455 45.748993 L 44.6455 45.766998 L 43.5205 45.766998 L 43.3405 47 L 42.422501 47 Z M 44.5285 44.911987 L 44.087502 41.798004 L 44.0695 41.798004 L 43.637501 44.911987 Z M 38.426498 40.700012 L 39.893501 40.700012 C 40.403503 40.700012 40.775497 40.818512 41.009499 41.055511 C 41.2435 41.292511 41.3605 41.656982 41.3605 42.148987 L 41.3605 42.536011 C 41.3605 43.190002 41.144501 43.604004 40.712502 43.778015 L 40.712502 43.79599 C 40.952499 43.868011 41.122002 44.014984 41.221001 44.237 C 41.32 44.459015 41.369499 44.756012 41.369499 45.127991 L 41.369499 46.234985 C 41.369499 46.415009 41.3755 46.560486 41.387501 46.671509 C 41.399498 46.782501 41.429501 46.891998 41.477501 47 L 40.469501 47 C 40.433498 46.89801 40.4095 46.802002 40.397499 46.712006 C 40.385498 46.622009 40.379501 46.459991 40.379501 46.226013 L 40.379501 45.074005 C 40.379501 44.786011 40.333 44.584991 40.240002 44.471008 C 40.146999 44.356995 39.9865 44.299988 39.758499 44.299988 L 39.4165 44.299988 L 39.4165 47 L 38.426498 47 Z M 39.776501 43.399994 C 39.974503 43.399994 40.123001 43.348999 40.222 43.247009 C 40.320999 43.144989 40.370499 42.973999 40.370499 42.734009 L 40.370499 42.247986 C 40.370499 42.019989 40.330002 41.855011 40.249001 41.752991 C 40.167999 41.651001 40.040501 41.600006 39.866501 41.600006 L 39.4165 41.600006 L 39.4165 43.399994 Z"/>
        <path id="MIX" fill="#484848" fill-rule="evenodd" stroke="none" d="M 34.014999 108.778015 L 32.925999 105.700012 L 33.970001 105.700012 L 34.636002 107.734009 L 34.653999 107.734009 L 35.338001 105.700012 L 36.274002 105.700012 L 35.185001 108.778015 L 36.327999 112 L 35.284 112 L 34.563999 109.803986 L 34.545998 109.803986 L 33.807999 112 L 32.872002 112 Z M 30.784 105.700012 L 31.774 105.700012 L 31.774 112 L 30.784 112 Z M 25.312 105.700012 L 26.725 105.700012 L 27.355 110.209015 L 27.373001 110.209015 L 28.003 105.700012 L 29.416 105.700012 L 29.416 112 L 28.48 112 L 28.48 107.230011 L 28.462 107.230011 L 27.742001 112 L 26.914 112 L 26.194 107.230011 L 26.176001 107.230011 L 26.176001 112 L 25.312 112 Z"/>
        <path id="FLTR" fill="#484848" fill-rule="evenodd" stroke="none" d="M 19.568501 180.699997 L 21.0355 180.699997 C 21.545502 180.699997 21.9175 180.818497 22.151501 181.055496 C 22.385502 181.292496 22.502499 181.656998 22.502499 182.149002 L 22.502499 182.535995 C 22.502499 183.190002 22.286503 183.604004 21.8545 183.778 L 21.8545 183.796005 C 22.094501 183.867996 22.264 184.014999 22.362999 184.237 C 22.462002 184.459 22.511501 184.755997 22.511501 185.128006 L 22.511501 186.235001 C 22.511501 186.415009 22.5175 186.560501 22.529499 186.671494 C 22.5415 186.782501 22.571499 186.891998 22.619499 187 L 21.6115 187 C 21.5755 186.897995 21.5515 186.802002 21.539501 186.712006 C 21.5275 186.621994 21.5215 186.460007 21.5215 186.225998 L 21.5215 185.074005 C 21.5215 184.785995 21.475 184.585007 21.382 184.470993 C 21.289 184.356995 21.128502 184.300003 20.900501 184.300003 L 20.5585 184.300003 L 20.5585 187 L 19.568501 187 Z M 20.918499 183.399994 C 21.116501 183.399994 21.264999 183.348999 21.364 183.246994 C 21.463001 183.145004 21.512501 182.973999 21.512501 182.733994 L 21.512501 182.248001 C 21.512501 182.020004 21.472 181.854996 21.390999 181.753006 C 21.309999 181.651001 21.182501 181.600006 21.008499 181.600006 L 20.5585 181.600006 L 20.5585 183.399994 Z M 16.436501 181.600006 L 15.4015 181.600006 L 15.4015 180.699997 L 18.4615 180.699997 L 18.4615 181.600006 L 17.4265 181.600006 L 17.4265 187 L 16.436501 187 Z M 12.6385 180.699997 L 13.6285 180.699997 L 13.6285 186.100006 L 15.2575 186.100006 L 15.2575 187 L 12.6385 187 Z M 8.9125 180.699997 L 11.5315 180.699997 L 11.5315 181.600006 L 9.9025 181.600006 L 9.9025 183.354996 L 11.1805 183.354996 L 11.1805 184.255005 L 9.9025 184.255005 L 9.9025 187 L 8.9125 187 Z"/>
        <path id="RES" fill="#484848" fill-rule="evenodd" stroke="none" d="M 49.752998 187.089996 C 49.272999 187.089996 48.91 186.953506 48.664001 186.680496 C 48.417999 186.407501 48.294998 186.016006 48.294998 185.505997 L 48.294998 185.145996 L 49.230999 185.145996 L 49.230999 185.578003 C 49.230999 185.986008 49.402 186.190002 49.743999 186.190002 C 49.912003 186.190002 50.039497 186.140503 50.126499 186.041504 C 50.213501 185.942505 50.257 185.781998 50.257 185.559998 C 50.257 185.296005 50.196999 185.063507 50.077 184.862503 C 49.957001 184.661499 49.735001 184.419998 49.410999 184.138 C 49.002998 183.778 48.718002 183.452499 48.556 183.161499 C 48.393997 182.870499 48.313 182.542007 48.313 182.175995 C 48.313 181.677994 48.438999 181.292496 48.691002 181.019501 C 48.943001 180.746506 49.308998 180.610001 49.789001 180.610001 C 50.263 180.610001 50.621498 180.746506 50.864502 181.019501 C 51.107502 181.292496 51.229 181.68399 51.229 182.194 L 51.229 182.455002 L 50.292999 182.455002 L 50.292999 182.130997 C 50.292999 181.914993 50.250999 181.757507 50.167 181.658493 C 50.083 181.559494 49.959999 181.509995 49.798 181.509995 C 49.467999 181.509995 49.303001 181.710999 49.303001 182.113007 C 49.303001 182.341003 49.364498 182.554001 49.487499 182.751999 C 49.6105 182.949997 49.834 183.190002 50.158001 183.472 C 50.572002 183.832001 50.856998 184.158997 51.013 184.453003 C 51.168999 184.747009 51.247002 185.091995 51.247002 185.488007 C 51.247002 186.003998 51.119499 186.399994 50.864502 186.675995 C 50.609497 186.951996 50.239002 187.089996 49.752998 187.089996 Z M 44.550999 180.699997 L 47.250999 180.699997 L 47.250999 181.600006 L 45.541 181.600006 L 45.541 183.264999 L 46.900002 183.264999 L 46.900002 184.164993 L 45.541 184.164993 L 45.541 186.100006 L 47.250999 186.100006 L 47.250999 187 L 44.550999 187 Z M 40.293999 180.699997 L 41.761002 180.699997 C 42.271004 180.699997 42.642998 180.818497 42.876999 181.055496 C 43.111 181.292496 43.228001 181.656998 43.228001 182.149002 L 43.228001 182.535995 C 43.228001 183.190002 43.012001 183.604004 42.580002 183.778 L 42.580002 183.796005 C 42.82 183.867996 42.989498 184.014999 43.088501 184.237 C 43.1875 184.459 43.237 184.755997 43.237 185.128006 L 43.237 186.235001 C 43.237 186.415009 43.243 186.560501 43.255001 186.671494 C 43.266998 186.782501 43.297001 186.891998 43.345001 187 L 42.336998 187 C 42.300999 186.897995 42.277 186.802002 42.264999 186.712006 C 42.252998 186.621994 42.247002 186.460007 42.247002 186.225998 L 42.247002 185.074005 C 42.247002 184.785995 42.2005 184.585007 42.107498 184.470993 C 42.0145 184.356995 41.854 184.300003 41.625999 184.300003 L 41.284 184.300003 L 41.284 187 L 40.293999 187 Z M 41.644001 183.399994 C 41.842003 183.399994 41.990501 183.348999 42.0895 183.246994 C 42.188499 183.145004 42.237999 182.973999 42.237999 182.733994 L 42.237999 182.248001 C 42.237999 182.020004 42.197502 181.854996 42.116501 181.753006 C 42.0355 181.651001 41.908001 181.600006 41.734001 181.600006 L 41.284 181.600006 L 41.284 183.399994 Z"/>
        <path id="path4" fill="#484848" fill-rule="evenodd" stroke="none" d="M 34.014999 248.778 L 32.925999 245.699997 L 33.970001 245.699997 L 34.636002 247.733994 L 34.653999 247.733994 L 35.338001 245.699997 L 36.274002 245.699997 L 35.185001 248.778 L 36.327999 252 L 35.284 252 L 34.563999 249.804001 L 34.545998 249.804001 L 33.807999 252 L 32.872002 252 Z M 30.784 245.699997 L 31.774 245.699997 L 31.774 252 L 30.784 252 Z M 25.312 245.699997 L 26.725 245.699997 L 27.355 250.209 L 27.373001 250.209 L 28.003 245.699997 L 29.416 245.699997 L 29.416 252 L 28.48 252 L 28.48 247.229996 L 28.462 247.229996 L 27.742001 252 L 26.914 252 L 26.194 247.229996 L 26.176001 247.229996 L 26.176001 252 L 25.312 252 Z"/>
        <path id="GAIN" fill="#484848" fill-rule="evenodd" stroke="none" d="M 34.505501 315.700012 L 35.747501 315.700012 L 36.710499 319.471008 L 36.7285 319.471008 L 36.7285 315.700012 L 37.6105 315.700012 L 37.6105 322 L 36.593498 322 L 35.405502 317.401001 L 35.387501 317.401001 L 35.387501 322 L 34.505501 322 Z M 32.147499 315.700012 L 33.137501 315.700012 L 33.137501 322 L 32.147499 322 Z M 28.6735 315.700012 L 30.0145 315.700012 L 31.040501 322 L 30.050499 322 L 29.870501 320.748993 L 29.870501 320.766998 L 28.745501 320.766998 L 28.5655 322 L 27.647499 322 Z M 29.7535 319.911987 L 29.3125 316.798004 L 29.2945 316.798004 L 28.862499 319.911987 Z M 25.1635 322.089996 C 24.683498 322.089996 24.317501 321.953491 24.0655 321.680511 C 23.813499 321.407501 23.6875 321.015991 23.6875 320.506012 L 23.6875 317.194 C 23.6875 316.68399 23.813499 316.292511 24.0655 316.019501 C 24.317501 315.74649 24.683498 315.609985 25.1635 315.609985 C 25.643503 315.609985 26.009499 315.74649 26.261499 316.019501 C 26.5135 316.292511 26.6395 316.68399 26.6395 317.194 L 26.6395 317.734009 L 25.703501 317.734009 L 25.703501 317.131012 C 25.703501 316.71701 25.532501 316.51001 25.1905 316.51001 C 24.848499 316.51001 24.6775 316.71701 24.6775 317.131012 L 24.6775 320.578003 C 24.6775 320.985992 24.848499 321.190002 25.1905 321.190002 C 25.532501 321.190002 25.703501 320.985992 25.703501 320.578003 L 25.703501 319.345001 L 25.2085 319.345001 L 25.2085 318.445007 L 26.6395 318.445007 L 26.6395 320.506012 C 26.6395 321.015991 26.5135 321.407501 26.261499 321.680511 C 26.009499 321.953491 25.643503 322.089996 25.1635 322.089996 Z"/>
    </g>
</svg>
